<?xml version="1.0" encoding="UTF-8" standalone="no"?>
<svg xmlns:rdf="http://www.w3.org/1999/02/22-rdf-syntax-ns#" xmlns="http://www.w3.org/2000/svg" height="611.25" viewBox="0 0 420 611.25" width="420" version="1.1" xmlns:cc="http://creativecommons.org/ns#" xmlns:xlink="http://www.w3.org/1999/xlink" xmlns:dc="http://purl.org/dc/elements/1.1/">
 <defs>
  <linearGradient id="b" y2="344.57" gradientUnits="userSpaceOnUse" x2="416.15" y1="344.57" x1="2.8091">
   <stop stop-color="#803300" offset="0"/>
   <stop stop-color="#a24100" offset=".5"/>
   <stop stop-color="#803300" offset="1"/>
  </linearGradient>
  <radialGradient id="a" gradientUnits="userSpaceOnUse" cy="76.12" cx="211.68" gradientTransform="matrix(1 0 0 .31930 0 51.815)" r="171.55">
   <stop stop-color="#a44100" offset="0"/>
   <stop stop-color="#803300" offset="1"/>
  </radialGradient>
 </defs>
 <g>
  <path d="m183.07 3.3027c-30.45-0.0383-61.52 1.1405-90.459 11.436-21.753 6.996-44.092 16.43-59.427 33.941-6.727 8.022-9.261 18.431-10.926 28.525-8.078 40.075-13.638 80.675-18.141 121.3-2.904 31.679-1.554 63.548-1.5537 95.32 0.54509 42.032 1.4859 84.133 4.1402 126.06 1.9825 22.453 7.6208 44.5 8.6091 67.092 0.72235 13.412 2.4276 26.704 5.2101 39.849 1.2299 7.135 2.3445 14.554 6.8076 20.523 9.3766 13.488 23.996 21.801 37.974 29.734 37.76 20.807 80.645 32.412 123.81 32.456 31.301 0.26339 62.585-3.2795 93.195-9.6156 28.94-6.3602 57.721-17.429 80.643-36.586 6.187-5.2272 11.775-11.652 13.733-19.647 3.5905-13.546 7.1453-27.09 8.99-40.994 3.2278-20.238 9.7472-39.763 14.889-59.54 4.0654-26.111 4.1178-52.678 7.3302-78.912 4.3919-47.183 7.2539-94.488 9.344-141.82 0.90883-21.115-2.1792-42.099-4.2168-63.068-2.6287-21.571-4.8205-43.239-8.6451-64.626-3.13-15.821-7.49-31.884-16.75-45.273-8.32-9.939-20.89-14.549-31.99-20.554-20.22-9.868-42.1-15.774-64.23-19.384-35.71-6.3014-72.14-6.2869-108.33-6.2063z" fill="#808080"/>
  <path d="m55.78 97.991 14.447 6.4208 19.262 6.822 26.887 8.0259 26.486 5.6182 38.926 4.4143 36.919 1.6052 28.492-0.4013 48.557-6.0194 48.958-7.6246 28.091-12.842 7.6246-17.256 2.8091-7.6246-2.0065-11.638-9.6311-12.44-25.282-11.638-30.097-9.2298-32.505-7.2233-33.709-3.6117-41.334-2.0065-44.544 2.4078-33.709 2.8091-30.9 5.2169-25.683 6.4208-21.269 11.236-12.44 12.44 2.0065 18.861 8.0259 15.249z" fill-rule="evenodd" fill="url(#a)"/>
  <path d="m17.894 108.79-6.5329 36.357-7.101 55.103 5.9648 6.5329 13.634 11.362 12.498 7.101 11.93 6.2488 34.653 15.054 35.221 10.225 36.641 7.101 33.232 4.2606 45.162 0.28404 38.629-4.2606 50.843-10.225 34.937-11.077 32.664-16.758 13.35-12.214 11.93-16.758-3.4085-40.901-6.8169-43.174-32.38 22.155-53.967 18.178-37.493 8.5211-41.47 3.9765-41.186 0.85212-45.73-3.9765-34.653-7.385-15.338-3.6925-30.392-11.646-42.606-24.143zm-13.079 115.61-1.6052 43.34-0.4013 45.748v42.939l3.6117 53.373 1.6052 6.0194 10.434 10.434 12.842 10.032 19.664 12.842 20.466 10.434 25.282 10.835 34.913 8.0259 24.88 4.013 36.117 2.8091h38.926l44.143-5.2169 33.709-8.4272 22.874-7.6246 24.078-10.835 23.275-11.236 12.44-6.822 8.0259-10.032 4.4143-31.301 7.2233-80.259 3.2104-56.182 1.2039-30.499-10.032 7.6246-14.045 12.039-21.67 10.835-25.282 10.032-34.512 8.4272-45.347 7.2234-46.149 2.0065-50.965-1.2039-48.156-8.4272-39.741-11.21-38.925-16.46-22.072-11.63zm58.589 321.04 22.874 12.039 32.104 10.835 42.136 9.2298 44.143 2.8091 38.926-1.2039 38.525-7.6246 36.919-11.236 30.097-18.861 19.262-17.657 15.249-20.466 10.434-38.926 1.2039-10.032-11.236 5.2169-16.854 10.032-27.288 11.638-28.893 9.2298-38.525 8.0259-46.55 6.822-51.366-2.0065-47.353-6.822-42.537-11.638-36.518-18.46-22.071-13.243-11.638-11.638-5.2169-2.4078 4.013 22.473 3.2104 29.295 2.8091 16.052 7.6246 9.2298 10.835 12.842 16.052 14.045 6.0195 3.6117z" fill-rule="evenodd" fill="url(#b)"/>
 </g>
 <path d="m165.94 610.27c-55.14-3.49-131.81-39.2-143.83-66.99-1.7325-4.0042-3.1535-13.07-2.3711-15.128 1.0292-2.707 0.2973-6.683-1.6422-8.9205-2.7862-3.2143-4.2841-12.895-3.0417-19.658 1.0252-5.5804 0.8768-7.9443-1.4715-23.438-1.44-9.48-3.124-21.24-3.7462-26.14-0.6221-4.9-1.6025-10.06-2.1786-11.48-4.0975-10.07-5.9287-26.39-3.9193-34.93 0.5493-2.3341 0.552-5.8738 0.01-9.375-2.7359-17.576-4.08-135.26-1.7965-157.29 0.9161-8.8365 0.9081-11.546-0.04-13.594-1.8271-3.9451-1.416-25.7 0.5578-29.516 0.9628-1.8618 2.004-8.0445 2.7953-16.598 0.6935-7.4969 1.6744-16.373 2.1796-19.724 0.5053-3.3516 1.364-9.2578 1.9082-13.125 0.5443-3.8672 1.5789-10.406 2.2991-14.531 2.4143-13.827 3.3504-20.58 3.8167-27.532 0.2548-3.7988 1.0911-9.0211 1.8585-11.605 0.7674-2.5841 2.0647-9.3901 2.8828-15.124 3.111-21.81 11.441-33.345 33.791-46.799 12.497-7.523 43.171-18.64 60.378-21.882 18.35-3.4579 28.08-4.9227 32.81-4.9384 2.8359-0.00945 13.594-0.48994 23.906-1.0678 34.011-1.9057 108.53 2.7511 126.56 7.9092 2.5811 0.73836 8.2788 2.0427 12.662 2.8985 4.3828 0.85579 9.4453 1.9229 11.25 2.3714 1.8047 0.44846 5.3343 1.2788 7.8436 1.8452 10.75 2.4266 40.726 16.619 47.879 22.669 2.0303 1.7172 5.3778 3.9659 7.439 4.9972 2.0612 1.0312 4.0724 2.5078 4.4695 3.2812 0.3971 0.77344 2.6206 4.7901 4.9411 8.9259 3.192 5.6889 4.4814 9.2267 5.2962 14.531 0.5923 3.8564 1.5472 7.588 2.122 8.2924 1.3516 1.6566 3.4148 7.5874 3.433 9.8681 0.01 0.97566 0.9065 4.7704 1.9972 8.4328 1.243 4.1739 2.0891 9.9843 2.2672 15.57 0.1563 4.901 0.7442 11.02 1.3063 13.598 0.5622 2.5781 1.6442 11.016 2.4044 18.75 3.3735 34.319 4.2272 41.642 5.574 47.812 1.621 7.4263 1.9214 21.859 0.5541 26.626-0.5009 1.7468-1.1748 14.189-1.4975 27.65s-0.8181 24.85-1.1009 25.309c-0.2828 0.45916-0.6729 6.7873-0.867 14.062-0.194 7.2752-0.9592 20.61-1.7004 29.634-0.7413 9.0234-2.0123 25.266-2.8245 36.094s-2.3077 23.334-3.3233 27.79c-1.0155 4.4565-1.8829 11.206-1.9274 15-0.044 3.7935-0.4845 9.6394-0.9775 12.991-0.5794 3.9378-0.5636 10.201 0.045 17.703 0.8008 9.8794 0.7271 12.023-0.4947 14.386-2.9728 5.7488-7.1667 18.465-9.8231 29.786-1.5125 6.4453-3.8319 14.883-5.1542 18.75-1.7998 5.2632-2.4949 9.4795-2.7647 16.768-0.3347 9.0422-2.8151 20.081-5.1945 23.116-0.4215 0.53779-0.8779 4.3347-1.0142 8.4375-0.6413 19.312-20.907 37.1-63.446 55.689-10.993 4.8038-57.045 14.668-76.696 16.428-22.516 2.0169-29.147 2.3416-45.327 2.2192-10.055-0.076-23.133-0.4456-29.062-0.8212zm30.469-1.3551c2.5782-0.29362 11.523-0.696 19.878-0.89421 8.3549-0.19819 15.601-0.61371 16.102-0.92338 0.5011-0.30967 4.5421-0.72819 8.9802-0.93006 4.438-0.20187 8.587-0.79692 9.2201-1.3223 0.6331-0.52541 3.8891-1.2317 7.2356-1.5696 3.3464-0.33787 6.7173-0.84856 7.4907-1.1349 0.7734-0.2863 2.8828-0.44241 4.6875-0.34689 1.8047 0.0955 5.1273-0.4809 7.3835-1.2809 2.2562-0.80002 5.5305-1.4546 7.2762-1.4546 3.1881 0 21.196-5.1319 27.762-7.9118 1.9336-0.81858 3.5156-1.2064 3.5156-0.8617 0 0.34465 0.7383-0.004 1.6406-0.77427 2.1891-1.8692 10.511-6.3821 11.837-6.4191 1.6316-0.0456 11.544-5.1552 14.912-7.6862 1.6595-1.2475 4.9158-3.3829 7.2361-4.7454s5.9062-3.9566 7.9687-5.7648 5.5658-4.8807 7.7851-6.8278c6.0901-5.3432 11.74-21.821 7.4815-21.821-1.2521 0-10.11 8.3885-10.11 9.5741 0 1.2685 1.5016 0.81338 3.75-1.1366 2.4557-2.1298 2.8125-2.2498 2.8125-0.94566 0 1.2842-5.5513 6.4791-8.6253 8.0716-1.3923 0.72132-2.8689 1.8594-3.2812 2.529-3.0346 4.928-35.968 25.033-41.006 25.033-0.5982 0-1.4884 0.37091-1.9782 0.82425-0.4899 0.45334-2.5782 1.3381-4.6407 1.9661-2.0625 0.62802-6.4041 2.1759-9.6481 3.4398-26.218 10.215-75.043 16.28-115.98 14.407-22.171-1.0144-39.773-3.9135-68.438-11.272-7.6875-1.9734-24.668-7.984-26.86-9.5076-1.3665-0.94994-5.1634-2.9834-8.4375-4.5188-5.9618-2.7958-18.325-10.335-28.484-17.37-2.9783-2.0625-6.4912-4.4716-7.8065-5.3536-2.3247-1.5589-13.186-11.207-17.507-15.552-2.516-2.5298-3.6773-1.458-2.7913 2.5761 0.3935 1.7916 1.4561 3.0406 3.1164 3.6635 1.3856 0.51978 3.9958 2.2726 5.8005 3.8952s4.3359 3.8711 5.625 4.9968c3.595 3.1393 20.807 15.958 22.947 17.09 1.0433 0.55183 7.3813 3.8712 14.084 7.3764 6.7032 3.5052 12.82 6.8982 13.594 7.5399 0.7734 0.64174 2.8309 1.4358 4.5722 1.7646s6.8169 2.0586 11.279 3.8439c4.4623 1.7853 11.475 4.0754 15.584 5.0889 4.1089 1.0136 9.7911 2.513 12.627 3.332 10.933 3.1574 41.388 6.921 56.953 7.0381 3.2519 0.0245 5.8594 0.4613 5.8594 0.98159 0 2.0923-25.7 0.69538-45-2.4459-33.328-5.4246-57.508-13.873-87.656-30.626-7.5109-4.1739-17.905-11.855-26.56-19.627-5.338-4.7937-8.983-6.2266-6.3778-2.5072 1.8369 2.6226 17.274 16.769 18.298 16.769 0.4404 0 2.9201 1.6875 5.5105 3.75s5.249 3.75 5.908 3.75 1.8642 0.59023 2.6783 1.3116c2.8384 2.5153 19.362 10.648 28.668 14.109 5.1563 1.9181 12.34 4.6823 15.964 6.1426 3.6633 1.4761 11.157 3.3523 16.875 4.2251 5.6571 0.86351 13.028 2.3411 16.379 3.2835 9.0203 2.5364 16.1 3.625 28.125 4.3248 5.9297 0.34508 11.625 0.97052 12.656 1.3898 1.0313 0.41934 3.3516 0.58611 5.1563 0.37061 1.8047-0.21552 5.3906-0.63206 7.9687-0.92567zm13.79-3.8026c0.9917-0.99164 18.554-1.4028 18.554-0.43435 0 0.57008-3.7673 0.94267-9.5313 0.94267-5.2421 0-9.3025-0.22874-9.0229-0.50832zm23.24-1.36c0-0.51563 2.2148-0.90785 4.9219-0.8716 3.6147 0.0484 4.4239 0.27987 3.0468 0.8716-2.6251 1.1281-7.9687 1.1281-7.9687 0zm38.438-5.6605c0-0.37904 1.1602-0.90141 2.5781-1.1608 1.418-0.2594 5.6314-1.362 9.3632-2.4502 7.6518-2.2313 8.6837-2.3581 8.6837-1.0672 0 0.50121-2.2148 1.544-4.9219 2.3174-6.4537 1.8437-15.703 3.2342-15.703 2.3608zm23.438-5.585c-0.8229-0.53443-0.9485-0.91926-0.3028-0.92766 0.6068-0.008 4.3-1.4909 8.207-3.2956 3.9071-1.8047 7.5295-3.2812 8.05-3.2812 0.5204 0 1.6788-0.3821 2.5741-0.8491 0.8954-0.467 4.3701-1.9575 7.7217-3.3123 6.934-2.8028 7.4684-3.079 18.035-9.3218 8.9077-5.2629 19.217-12.519 24.568-17.292 2.4614-2.1954 3.831-2.8933 4.0992-2.0887 0.5921 1.7765-8.5125 9.4945-19.967 16.926-1.1921 0.77344-5.0584 3.3136-8.5919 5.6447-10.516 6.9377-26.368 14.218-36.717 16.863-2.2236 0.5683-4.5439 1.2164-5.1562 1.4402-0.6123 0.22384-1.7461-0.004-2.5195-0.50631zm-75.938-1.9283c15.818-1.0942 14.7-0.97304 34.968-3.7875 8.6111-1.1957 15.656-2.5092 15.656-2.9189 0-1.1642-3.772-0.8973-16.656 1.1785-60.51 9.76-127.76-0.27-178.35-26.57-17.136-8.91-33.718-22.8-49.955-41.85-3.497-4.1025-4.4636-4.787-4.9543-3.5084-0.6002 1.5642 1.0073 4.73 4.1124 8.099 0.8679 0.94164 3.6873 4.2986 6.2654 7.46 5.0343 6.1732 17.789 17.596 25.352 22.705 12.961 8.7552 49.615 25.185 56.187 25.185 0.8882 0 2.9444 0.60579 4.5692 1.3462 7.5807 3.4545 29.368 8.4208 49.829 11.358 7.8005 1.1198 34.526 3.0079 37.031 2.6162 1.2891-0.20159 8.4609-0.78966 15.938-1.3068zm22.5-6.4745c24.902-2.9983 46.875-8.2696 46.875-11.245 0-0.44524-1.3632-0.4542-3.0469-0.02-9.6051 2.477-28.184 5.6708-46.634 8.0161-10.759 1.3678-56.611 2.0631-62.351 0.94562-1.0312-0.20079-4.1953-0.64225-7.0312-0.98105-6.6273-0.79171-19.168-2.9595-28.125-4.8615-12.16-2.5824-43.342-11.737-45.362-13.318-0.5741-0.44918-2.1775-1.0872-3.5633-1.4179-1.3857-0.33065-5.2508-1.8654-8.5891-3.4105-3.351-1.55-6.272-2.81-6.504-2.81-0.2319 0-3.4993-1.6917-7.2608-3.7594-6.5809-3.6174-8.8672-4.1778-6.7465-1.6539 1.098 1.3069 4.5264 3.1082 18.014 9.4645 17.119 8.068 22.163 9.9497 40.312 15.04 15.694 4.4013 41.501 9.9386 52.5 11.265 6.4119 0.77303 58.739-0.19897 67.5-1.2539zm-124.22-1.3635c-2.0625-0.64911-4.1438-0.96579-4.6252-0.70373-1.2697 0.69118 2.2799 1.8973 5.5627 1.8901 2.6331-0.006 2.5733-0.0815-0.9375-1.1864zm174.37-5.24c0.695-1.1244-2.0708-1.1244-4.6875 0-1.5805 0.67917-1.4051 0.81607 1.1166 0.8716 1.6453 0.0363 3.2523-0.35598 3.5709-0.8716zm-76.244-11.729c0.6309-11.238 1.7942-18.695 3.1119-19.949 0.3849-0.36628 0.4442 3.3418 0.1317 8.2403-0.3124 4.8984-0.6792 12.07-0.8151 15.938l-0.2471 7.0312 3.0469 0.29377 3.0469 0.29378 0.059-4.5125c0.033-2.4819 0.4356-9.1532 0.8955-14.825 0.4599-5.6719 1.2763-18.328 1.8141-28.125 0.5379-9.7969 1.2192-18.955 1.514-20.351l0.5361-2.5382-7.6189 0.16243c-10.193 0.21732-10.189 0.19051-10.716 62.57-0.1148 13.574 4.448 9.8919 5.2407-4.2286zm2.6502-30.459c0-2.96 0.3591-4.5762 0.9375-4.2188 0.5156 0.31867 0.9375 2.2171 0.9375 4.2188 0 2.0016-0.4219 3.9001-0.9375 4.2188-0.5784 0.35744-0.9375-1.2587-0.9375-4.2188zm0.08-14.062c0.028-4.3828 0.4141-8.8125 0.8572-9.8438 0.5324-1.2389 0.8232 0.9874 0.8573 6.5625 0.028 4.6406-0.3574 9.0703-0.8573 9.8438-0.6239 0.96541-0.8926-1.0919-0.8572-6.5625zm-36.975 54.154c0.3937-0.63701 0.6588-4.1399 0.5891-7.7842-0.07-3.6443 0.2594-7.2364 0.7314-7.9824 0.585-0.92463 0.8627 0.16871 0.8725 3.4346 0.026 8.7065 1.033 13.49 2.8395 13.49 3.4565 0 3.7408-1.9714 4.1181-28.556 0.2441-17.192 0.7187-26.356 1.4005-27.038 0.75-0.75005 1.039-0.40492 1.0597 1.2656 0.6008 48.54 0.9883 54.328 3.6368 54.328 2.9497 0 2.969-0.20001 3.4325-35.669l0.442-33.822-3.5163 0.29216c-3.2616 0.27098-3.5349 0.52439-3.7713 3.4967-0.3698 4.6476-1.1897 4.8081-1.1897 0.23297 0-4.345 1.0478-3.9151-10.312-4.2314l-5.1562-0.14357-0.5717 11.25c-0.4605 9.0626-0.4437 30.924 0.043 55.547 0.064 3.2311 3.7248 4.5228 5.3529 1.8886zm1.2259-31.42c-0.024-7.0898-0.2637-17.426-0.5323-22.969-0.417-8.6036-0.2801-10.078 0.9356-10.078 1.5265 0 2.3467 18.154 1.6835 37.266-0.4676 13.476-2.0373 10.302-2.0868-4.2188zm24.762 21.569c2.5597-44.818 2.0203-58.635-2.2717-58.188l-2.8019 0.29138-0.026 23.906c-0.053 48.649-0.2367 45 2.2698 45 2.1488 0 2.2157-0.26019 2.8296-11.009zm24.535 10.017c0.3373-0.54581 1.7333-0.75749 3.1022-0.47041 4.7085 0.98748 5.1358-0.1078 5.5263-14.164 0.1981-7.1316 0.7686-14.443 1.2678-16.248 0.4991-1.8047 1.4938-10.333 2.2104-18.952 0.7165-8.6191 1.5767-16.114 1.9115-16.656 2.8419-4.5982 2.8101 12.583-0.059 31.693-2.4421 16.268-2.8567 32.554-0.8484 33.324 2.6731 1.0258 3.0064-0.0515 4.0228-13.003 1.064-13.556 3.4379-37.297 4.867-48.673 1.1299-8.9944 1.3909-8.6994-6.3609-7.1928-3.4644 0.67331-8.1883 1.2841-10.497 1.3573-4.6737 0.14816-6.1349 3.3163-5.034 10.914 0.2614 1.8047-0.1885 9.8203-0.9999 17.812-1.3841 13.633-3.3615 37.151-3.3615 39.98 0 1.4969 3.3635 1.7165 4.2527 0.27772zm1.169-4.9646c-0.2765-1.4465 0.076-7.7644 0.7833-14.04 0.7073-6.2753 1.7552-19.003 2.3287-28.285 1.1532-18.662 1.299-19.626 2.8282-18.681 1.1963 0.73937 0.9851 4.6672-2.0639 38.368-2.0134 22.254-2.9282 27.596-3.8763 22.637zm-61.215-8.5742c-0.01-7.2188-0.1119-22.704-0.2343-34.411l-0.2226-21.286-3.3249-0.62378c-4.3927-0.82407-4.6776-0.37922-4.4477 6.9461 0.1079 3.4369 0.5467 18.061 0.9752 32.499 0.8293 27.941 1.3299 30.845 5.2203 30.291 1.9922-0.28362 2.0456-0.63547 2.034-13.416zm-9.4758 2.5781c-0.1958-5.543-0.6148-21.363-0.931-35.156-0.5352-23.337-0.6926-25.078-2.2672-25.078-0.9306 0-2.3077-0.23627-3.0603-0.52505-2.0896-0.80189-2.3019 2.9806-1.465 26.102 1.6203 44.76 1.6168 44.736 6.4964 44.736 1.4097 0 1.5441-1.1039 1.2271-10.078zm98.785 7.0228c0.6969-0.54968 1.1718-3.1313 1.1718-6.3696 0-2.9949 0.8254-11.908 1.8341-19.807s2.2803-20.057 2.8258-27.018c0.5455-6.9609 1.246-13.605 1.5566-14.766 0.4474-1.6711 0.1763-2.1094-1.3048-2.1094-2.563 0-4.3115 2.3672-3.6318 4.9169 0.3101 1.1629-0.2377 9.0753-1.2172 17.583-4.008 34.813-4.5919 40.438-4.6948 45.234-0.031 1.418-0.5423 2.5781-1.1374 2.5781-1.3699 0-0.5083-20.266 1.4946-35.156 1.4717-10.94 3.3727-32.621 2.9016-33.092-2.8162-2.8163-4.792 1.303-4.9923 10.408-0.1156 5.2574-0.82 14.41-1.5653 20.34-4.7794 38.026-3.4571 45.315 6.7591 37.257zm-107.9-15.94c-0.3424-9.4102-1.049-19.641-1.5702-22.734-0.5211-3.0938-0.8935-11.104-0.8273-17.801l0.1202-12.176-3.1275-0.63963c-1.72-0.3518-3.4956-0.41207-3.9456-0.13394-0.8811 0.54456-0.055 24.125 1.2949 36.983 2.9558 28.147 3.122 33.106 0.975 29.094-2.1457-4.0092-6.4446-57.236-5.1468-63.724 0.6776-3.3879 1.018-3.1926-8.5387-4.9-3.6094-0.64487-7.6276-1.7106-8.9294-2.3683s-5.4045-1.3847-9.1172-1.6155c-3.7126-0.23082-7.2905-0.86804-7.9508-1.416-0.6603-0.54801-2.4639-1.2908-4.0078-1.6506-1.544-0.35981-4.8276-1.2914-7.2968-2.0702-5.9686-1.8825-5.8582-2.2444-4.139 13.577 0.8271 7.612 1.7491 16.582 2.0488 19.934 0.2998 3.3516 1.153 8.8359 1.8961 12.188 0.7431 3.3516 1.9663 9.6014 2.7183 13.889 1.4634 8.3427 2.563 10.486 5.3792 10.486 1.3536 0 1.6696-0.50355 1.3235-2.1094-1.229-5.7029-4.361-29.636-5.1836-39.609-0.5104-6.1875-1.3276-13.992-1.8162-17.344-0.4886-3.3516-0.5296-6.4607-0.091-6.9093 0.912-0.93308 2.8092 5.1448 2.8171 9.0248 0 1.4214 0.5962 6.6948 1.3184 11.719 0.7223 5.024 1.8187 13.986 2.4365 19.916 2.5637 24.608 3.5767 28.079 8.2034 28.111 2.6072 0.0177 2.6126-0.42786 0.166-13.579-2.6361-14.17-4.53-29.663-4.5785-37.453-0.058-9.2983 1.683-6.7302 2.8897 4.2626 1.9502 17.767 7.1933 47.963 8.4682 48.771 0.6918 0.43844 2.4179 0.80362 3.8359 0.81152 3.0217 0.0168 3.0597-0.31523 1.1791-10.298-5.3248-28.266-8.3383-58.125-5.8663-58.125 1.9834 0 3.632 10.083 6.8215 41.719 1.5807 15.679 5.8005 29.531 8.9961 29.531 2.1755 0 2.239-1.8916 0.3973-11.85-0.7495-4.0531-1.819-11.588-2.3766-16.744-0.927-8.5714-3.7534-36.245-3.7584-36.797-0.0009-0.1289 0.5829-0.23437 1.2978-0.23437 1.4637 0 1.7747 1.7059 3.8452 21.094 0.7709 7.2188 2.07 18.398 2.887 24.844 0.8169 6.4453 1.6267 13.755 1.7995 16.245 0.3828 5.5128 2.3441 6.5404 13.519 7.0831l2.2567 0.10959-0.6225-17.109zm142.89 16.139c2.104-1.126 2.408-2.7795 0.511-2.7795-2.1645 0-6.149 3.6799-4.0266 3.7188 0.9362 0.0172 2.5182-0.40553 3.5156-0.93929zm-26.313-7.7014c-0.0009-6.8968 0.9282-17.816 3.3487-39.336 0.7371-6.5528 1.3401-13.539 1.3401-15.524 0-1.9854 0.6316-4.4287 1.4034-5.4296 1.8047-2.3402 0.7267 22.448-2.306 53.024-0.704 7.0977-0.4757 9.375 0.9398 9.375 1.2343 0 1.7967-2.7454 2.701-13.185 0.4661-5.381 1.4864-15.268 2.2673-21.971 2.3679-20.324 2.6501-31.671 0.7692-30.926-0.8558 0.33895-2.9639 0.85253-4.6848 1.1413-4.1706 0.69975-4.4785 1.6908-6.1939 19.941-2.5902 27.558-4.2101 43.54-4.6686 46.061-0.537 2.9528 0.0009 3.6263 2.8976 3.6263 2.0907 0 2.1875-0.30096 2.1862-6.7969zm14.455 3.8941c0.5028-0.45946 0.2109-1.0348-0.7031-1.3855-1.8564-0.71237-2.1008-5.5279-0.4811-9.4788 0.5951-1.4515 1.1742-5.3814 1.2869-8.7329 0.1127-3.3516 0.6497-10.102 1.1934-15 0.5437-4.8984 1.4402-14.113 1.9922-20.477 0.5521-6.3637 1.2225-11.924 1.4899-12.357 0.2674-0.43267 0.017-1.0767-0.5565-1.4311-1.8414-1.138-3.8282 2.021-4.2289 6.7241-0.2142 2.5146-0.795 8.3689-1.2906 13.01-0.4955 4.6406-1.1681 11.812-1.4946 15.938-0.3265 4.125-1.015 9.3984-1.53 11.719-0.5151 2.3203-0.8815 7.2119-0.8143 10.87 0.067 3.6583-0.2871 7.7282-0.7875 9.0442-1.3084 3.4413 2.7073 4.4972 5.9242 1.5578zm26.796-0.37844c0-0.875-0.8854-1.4062-2.3438-1.4062-2.9172 0-3.0916 1.6006-0.2343 2.1509 1.1601 0.22345 2.2148 0.46373 2.3437 0.53395 0.1289 0.0702 0.2344-0.50514 0.2344-1.2786zm-21.562-3.1665c0-2.9692 2.4907-4.3429 3.7176-2.0503 0.6891 1.2876 1.9664 1.9355 3.8154 1.9355 3.158 0 3.4349-0.94076 1.2556-4.2667-1.2696-1.9376-1.3502-2.9882-0.4832-6.2952 0.5724-2.1832 1.4528-6.9225 1.9564-10.532 0.5036-3.6094 1.5509-10.781 2.3272-15.938 1.6818-11.17 2.9029-28.772 2.135-30.773-0.8969-2.3373-4.6667-0.83997-4.052 1.6094 0.8936 3.5603-3.3244 46.759-5.5709 57.054-1.0636 4.8743-3.5736 3.2103-2.8284-1.875 5.2968-36.148 6.579-55.943 3.5867-55.371-1.4239 0.27208-1.7874 2.2938-2.7518 15.303-0.6111 8.2443-1.5952 18.665-2.1869 23.157-0.5916 4.492-0.8035 8.6077-0.4707 9.1461 0.5931 0.95971-1.0873 7.0306-2.49 8.9959-0.3913 0.54822-0.4684 2.4943-0.1714 4.3245 0.297 1.8303 0.057 4.2294-0.5323 5.3314-0.9319 1.7414-0.8226 2.0036 0.8357 2.0036 1.2415 0 1.908-0.61486 1.908-1.7602zm15.57-10.024c0.6127-4.0889 1.823-11.02 2.6896-15.403 0.8667-4.3828 2.0921-15.669 2.7233-25.081 0.7092-10.577 1.5761-17.541 2.2698-18.234 1.6233-1.6233 1.3803-2.6223-0.6379-2.6223-3.1917 0-3.7857 2.2816-5.2626 20.213-0.8043 9.7654-1.8287 20.076-2.2764 22.912-0.4476 2.8359-1.5037 9.5011-2.3469 14.811-0.8431 5.3103-1.2712 10.079-0.9513 10.596 1.4051 2.2735 2.7587-0.29351 3.7924-7.1921zm18.066-0.40315c2.9581 0 10.373-5.9793 9.8751-7.9632-0.4692-1.8694 1.1094-11.353 4.7605-28.599 5.3046-25.056 5.7453-37.517 1.1651-32.937-0.5841 0.58409-2.4025 1.062-4.041 1.062-3.7718 0-5.4267 1.9283-4.6581 5.4277 0.3252 1.4806 0.1261 4.7674-0.4425 7.304s-1.6324 9.0417-2.3641 14.456c-0.7318 5.4141-1.9324 13.008-2.6681 16.875-0.7358 3.8672-1.8369 9.9844-2.447 13.594-1.2363 7.3146-2.6636 10.986-3.9594 10.185-0.9768-0.60371-0.016-11.747 1.3204-15.308 3.7159-9.9052 8.335-47.432 5.9165-48.068-0.9227-0.24262-1.5271 3.2247-5.268 30.222-1.036 7.4766-2.2584 15.07-2.7165 16.875-0.4582 1.8047-1.2927 6.19-1.8545 9.7452-1.1767 7.4453-2.4296 10.292-4.2268 9.602-1.3475-0.51706-3.6321 1.5486-2.7207 2.46 0.2975 0.2975 3.4348-0.69053 6.9717-2.1956 3.537-1.5051 6.8478-2.7366 7.3574-2.7366zm1.092-4.9219c0.023-1.1602 0.4507-4.0078 0.9517-6.3281 1.1233-5.2029 3.1975-16.897 4.6561-26.25 0.603-3.8672 1.7526-9.5625 2.5546-12.656 0.8019-3.0938 1.3851-7.4808 1.2959-9.7489-0.1667-4.2398 1.7063-7.5948 4.24-7.5948 2.4121 0 0.277 17.45-5.3341 43.594-0.4427 2.0625-1.2837 6.0491-1.869 8.8592-1.7815 8.5544-6.6105 16.082-6.4952 10.125zm-230.1 0.024c-0.37-4.24-1.037-9.4-1.499-11.48-1.227-5.51-3.551-22.79-4.731-35.18-1.399-14.69-1.389-14.66-4.797-15.84-1.627-0.57-3.143-1.04-3.369-1.04-0.2261 0-0.1165 1.7444 0.2437 3.8765 0.3602 2.132 0.9963 7.0891 1.4135 11.016 1.6079 15.133 5.5074 41.948 6.4662 44.466 0.5529 1.4515 1.0052 4.2782 1.0052 6.2815 0 3.6289 1.5509 5.5158 4.5879 5.582 1.0645 0.0232 1.1875-1.4004 0.6637-7.6819zm217.81 1.3822c1.1997-4.4612 2.8436-15.773 2.827-19.453l-0.013-2.8125-1.8438 2.2132c-1.1569 1.3888-1.859 3.6588-1.8846 6.0938-0.038 3.5662-0.4111 5.8855-2.3238 14.427-1.0313 4.6059 1.9908 4.1683 3.2378-0.46875zm-227.75 1.1326c0-0.79504-1.0268-6.5958-2.2817-12.891-3.4805-17.458-7.7438-51.054-6.7932-53.531 0.5432-1.4155-3.5148-5.1679-4.5113-4.1715-1.8878 1.8878 2.2544 41.074 5.6863 53.793 0.7009 2.5978 1.5597 7.1513 1.9085 10.119 0.7011 5.9657 5.9914 11.865 5.9914 6.6811zm267.71-2.6966c1.0001-0.73128 1.4908-1.6571 1.0906-2.0573-0.4002-0.40024-1.6535 0.19809-2.785 1.3296-2.2933 2.2933-1.13 2.7929 1.6944 0.72769zm-276.66-2.17c-0.3836-0.90234-1.0264-3.75-1.4283-6.3281-0.402-2.5781-1.406-8.2734-2.231-12.656-2.0125-10.691-4.5105-37.723-4.0441-43.763l0.375-4.8566-4.2905-1.6142c-2.3597-0.8878-5.1226-2.1828-6.1397-2.8778-1.017-0.69496-2.1527-1.2636-2.5236-1.2636-1.4022 0 3.1557 45.573 5.3047 53.041 0.7534 2.6176 1.5036 7.053 1.6673 9.8566 0.3298 5.6484 1.064 7.4154 3.0812 7.4154 1.7019 0 1.6989-2.108-0.015-10.586-2.7684-13.693-6.4988-52.931-5.2276-54.988 1.8166-2.9394 3.2281 3.4709 3.8077 17.293 0.7114 16.966 5.9675 49.956 8.2523 51.797 2.2073 1.7782 4.248 1.4978 3.4119-0.46875zm264.4-3.976c0.3258-1.0266 0.3235-2.3017-0.01-2.8336-0.3287-0.53183 0.042-2.9614 0.8237-5.399s2.0938-8.2289 2.9158-12.87c0.822-4.6406 2.0877-11.18 2.8126-14.531 0.725-3.3516 1.7872-9.4688 2.3606-13.594 0.5734-4.125 1.2256-8.6902 1.4494-10.145 0.3248-2.1117 0.082-2.5824-1.2041-2.3347-1.2995 0.25026-1.908 2.398-3.148 11.111-0.8454 5.9402-2.2484 14.374-3.1178 18.741-0.8694 4.3673-2.1542 10.894-2.8551 14.503-0.701 3.6094-1.7326 8.8095-2.2925 11.556-0.5599 2.7464-1.018 5.594-1.018 6.3281 0 2.0201 2.6026 1.5978 3.2786-0.53188zm25.18-3.4045c10.935-9.1206 12.086-10.671 15.794-21.29 4.1261-11.814 3.9556-10.939 2.1302-10.939-0.7862 0-1.864 1.1602-2.3951 2.5781-1.8889 5.043-8.3655 14.808-11.601 17.491-2.5065 2.0786-3.1618 3.2212-2.7616 4.8156 0.3902 1.5549-0.3351 2.9502-2.8316 5.4466-5.0014 5.0015-3.7572 6.4197 1.6647 1.8976zm-17.676-3.9637c1.1667-7.6831 3.5028-19.534 4.3704-22.171 0.5089-1.5469 1.2892-5.1328 1.7341-7.9688 2.4465-15.597 3.7453-23.194 4.2874-25.078 0.442-1.5366 0.215-2.1094-0.8361-2.1094-1.8269 0-2.9703 3.8179-4.352 14.531-0.5985 4.6406-1.8974 12.023-2.8863 16.406-0.989 4.3828-2.4555 11.977-3.259 16.875-0.8034 4.8984-1.8752 9.8871-2.3816 11.086-0.5064 1.1988-0.6669 2.5904-0.3566 3.0924 1.0019 1.6211 3.136-1.0834 3.6796-4.6631zm-287.34 2.13c0-1.323-0.3922-3.1382-0.8716-4.034-1.9492-3.6422-6.5818-41.212-6.6101-53.608-0.019-8.3296-0.784-10.266-4.0561-10.266-1.1849 0-1.6101 0.46311-1.2608 1.3733 0.2898 0.75529 0.7764 4.6576 1.0813 8.6719 2.822 37.14 11.718 81.07 11.718 57.86zm300.94-1.0191c1.8047-1.8507 2.4375-2.8991 1.4062-2.3298-2.3921 1.3206-6.0937 4.4803-6.0937 5.2014 0 1.2731 1.6041 0.2904 4.6875-2.8716zm-312.2-13.91c-2.706-16.91-4.992-37.87-5.131-47.04-0.131-8.63-1.112-11.56-3.875-11.56-1.5894 0-1.59-0.17174 0.051 13.072 0.7381 5.9587 2.0361 16.951 2.8843 24.428 2.8295 24.939 4.9275 34.504 7.0517 32.149 0.3684-0.40858-0.073-5.3835-0.9804-11.055zm304.94 7.7344c0.2359-2.1914 0.8776-5.25 1.426-6.7969 1.4535-4.1004 6.4853-26.695 8.2452-37.024 0.8339-4.8946 1.9176-9.6494 2.4083-10.566 1.2529-2.341 0.1818-3.7371-1.9795-2.5804-1.0733 0.57439-1.9666 2.4502-2.3453 4.9244-1.055 6.8944-8.8492 46.025-9.8515 49.459-1.3107 4.4912-1.1981 6.5687 0.356 6.5687 0.8511 0 1.4626-1.3995 1.7408-3.9844zm-310.03-3.75c-2.1727-10.243-5.2131-29.771-5.2131-33.484 0-2.4063-0.4128-6.6675-0.9173-9.4692s-1.1083-9.1019-1.3419-14c-0.4128-8.6557-0.4991-8.9432-3.0671-10.221-1.4534-0.72303-3.835-2.3051-5.2925-3.5156-3.2821-2.726-4.8019-2.8638-3.436-0.31164 0.8322 1.5551 2.653 16.472 2.7732 22.72 0.017 0.90235 0.7038 1.6406 1.5253 1.6406 1.3087 0 1.4111-1.1034 0.8261-8.9062-0.5631-7.5101-0.452-8.9062 0.709-8.9062 1.0814 0 1.5083 2.0622 1.9896 9.6094 0.3369 5.2852 1.0097 11.719 1.4949 14.297 0.4852 2.5781 1.3417 9.1971 1.9033 14.709 0.9585 9.407 3.6161 22.013 5.6447 26.776 1.4143 3.3203 3.1604 2.6387 2.4018-0.9375zm273.23-3.9292c0-0.54598 0.6336-6.2661 1.398-12.711 1.9441-16.39 1.8906-18.016-0.5802-17.643-1.7132 0.25836-2.0175 1.0091-2.2114 5.4558-0.1236 2.8359-0.7585 9.8837-1.4109 15.662-1.3022 11.534-0.8592 15.197 1.457 12.05 0.7366-1.0009 1.343-2.2665 1.3475-2.8125zm46.679 3.0386c0.6187-0.61875 1.1231-2.6227 1.1208-4.4531 0-1.8305 1.0233-6.7031 2.2791-10.828 1.2558-4.125 3.1756-11.719 4.2662-16.875 1.0905-5.1562 2.3502-10.852 2.7992-12.656 2.1455-8.6228 2.2771-13.72 0.3086-11.953-1.0053 0.90235-2.3736 1.6406-3.0406 1.6406-0.9668 0-0.9783 0.28267-0.056 1.3933 1.2087 1.4564 1.152 2.1282-1.3075 15.482-3.2744 17.779-4.1163 21.613-4.992 22.734-0.5038 0.64495-1.599 3.956-2.4338 7.3578-0.8347 3.4018-1.7852 6.8823-2.1121 7.7344-0.7045 1.8357 1.4664 2.1264 3.1686 0.4242zm-327-4.2718c0-0.90575-0.4005-3.0432-0.8899-4.7498-0.4895-1.7067-1.5799-8.2429-2.4232-14.525-2.1801-16.241-2.6617-18.637-3.7182-18.503-1.3424 0.17037-0.6396 10.122 1.4817 20.978 0.9898 5.0652 1.7996 10.472 1.7996 12.015 0 3.1285 1.4615 6.432 2.8455 6.432 0.4975 0 0.9045-0.74107 0.9045-1.6468zm336.02-6.0876c0.7569-1.1602 1.3423-3.375 1.301-4.9219-0.041-1.5469 0.5673-4.7109 1.3524-7.0312 0.7852-2.3203 1.9276-6.75 2.5389-9.8438 0.6112-3.0938 1.4873-7.1016 1.9468-8.9062 3.1867-12.516 4.0226-17.88 2.9526-18.951-1.6772-1.6772-2.6014-0.0532-3.8491 6.763-1.0855 5.9298-7.6052 33.81-9.4085 40.233-1.3858 4.9358 0.5951 6.5988 3.1659 2.6578zm-344.15-4.6875c-0.8263-4.347-3.0326-8.3702-4.1958-7.6513-1.9615 1.2123 1.4811 10.698 3.8826 10.698 0.5007 0 0.6382-1.3375 0.3132-3.0469zm355.45-15.482c0.8428-3.4733 2.339-9.6901 3.3249-13.815 0.9859-4.125 2.6146-10.664 3.6194-14.531 1.1226-4.3208 1.493-7.3772 0.9607-7.9286-1.9143-1.9833-3.9894 2.5603-6.4725 14.172-1.4158 6.6206-3.7078 16.152-5.0935 21.18-1.3857 5.0286-2.217 9.6323-1.8474 10.23 1.1901 1.9257 3.8893-2.6353 5.5084-9.3082zm-140.69 4.4765c5.6224-0.57258 13.849-1.7183 18.281-2.5461 4.4323-0.82777 9.5353-1.6298 11.34-1.7822 1.8047-0.15247 5.3906-0.72879 7.9687-1.2807 2.5782-0.55191 5.5313-1.1646 6.5625-1.3616 7.1856-1.3723 9.1571-2.188 8.3694-3.4626-0.3588-0.58057-1.0424-0.52415-1.8588 0.15342-0.7102 0.58941-1.8328 0.87615-2.4947 0.63719-1.9573-0.70668 17.873-7.2428 21.975-7.2428 0.7899 0 1.9302-0.59526 2.534-1.3228 1.8333-2.2089-0.5996-2.7817-4.9246-1.1594-4.3692 1.6389-19.948 5.7469-25.006 6.594-8.1388 1.3631-26.649 3.6309-35.625 4.3648-5.4141 0.44263-13.008 1.2417-16.875 1.7757-25.51 3.5223-74.593 0.15062-102.25-7.0237-2.8698-0.74447-6.5363-1.3536-8.1478-1.3536s-3.1908-0.42188-3.5095-0.9375c-0.7941-1.285 0.7915-1.1825 8.4379 0.54531 10.928 2.4692 14.787 3.0896 19.687 3.1651 2.5782 0.0397 7.6407 0.70432 11.25 1.477 17.728 3.7949 73.7 3.7488 97.031-0.08 4.8984-0.80387 11.835-1.8586 15.415-2.344 12.79-1.734 40.934-9.2771 43.659-11.702 0.7798-0.69374 2.7608-1.2232 4.4022-1.1765s4.1674-0.71698 5.6135-1.697l2.629-1.7818-2.5461-0.29356c-1.4003-0.16146-3.9316 0.32556-5.625 1.0822-5.4927 2.4544-21.628 7.0257-29.798 8.4419-44.464 7.7081-52.217 8.4322-84.068 7.8525-14.349-0.26115-28.83-0.90917-32.182-1.44-3.3516-0.53087-10.523-1.4814-15.938-2.1122-5.4141-0.63083-12.797-1.6833-16.406-2.3389-23.183-4.2108-28.162-5.216-32.574-6.5768-14.2-4.3802-23.219-7.451-27.426-9.3386-2.5781-1.1566-9.3281-4.1121-15-6.5679-12.987-5.6231-24.652-12.762-40.142-24.568-6.2937-4.7967-8.1392-5.7358-8.1392-4.142 0 5.6445 39.697 30.257 66.562 41.269 2.8359 1.1625 6 2.4867 7.0312 2.9427 1.0313 0.45603 7.5704 2.4373 14.531 4.4029 7.1144 2.0089 11.706 3.7084 10.487 3.8812-1.1932 0.16909-4.99-0.53126-8.4375-1.5564-3.4474-1.0251-8.0955-2.1556-10.329-2.5122-2.2336-0.3566-5.1867-1.2357-6.5625-1.9535-1.3759-0.71781-3.1344-1.2744-3.9078-1.2369-1.25 0.0607-1.25 0.12475 0 0.57689 7.5006 2.713 10.159 5.6758 4.0671 4.533-3.8757-0.72708-23.679-8.1341-27.973-10.463-1.5468-0.83884-5.7656-3.0082-9.375-4.8207-6.7433-3.3864-25.067-15.097-25.625-16.377-0.4534-1.0399-2.9687-0.88071-2.9687 0.18787 0 0.49748 0.9492 1.3996 2.1094 2.0048 1.1601 0.60514 2.7422 1.685 3.5156 2.3998 1.4675 1.3561 3.6277 2.7904 14.531 9.648 16.176 10.174 42.189 21.133 58.901 24.815 3.1828 0.70118 9.3728 2.3291 13.756 3.6176 10.71 3.1486 21.072 5.1431 32.864 6.3257 5.386 0.54019 10.631 1.2371 11.656 1.5487 6.5807 2.001 61.851 2.2132 80.547 0.30927zm-80.066-3.7182c-5.2177-0.48952-5.7149-0.6851-3.4585-1.3604 2.3306-0.69751 4.8563-0.42123 15.177 1.6601 2.74 0.55256-4.6488 0.36358-11.719-0.29972zm74.299 0.34593c0.6244-0.62442 18.494-3.1257 22.654-3.1709 4.9795-0.0541 1.8132 0.99662-7.0851 2.3511-9.0927 1.3841-16.524 1.7754-15.569 0.81982zm-109.46-5.5958c-3.0937-0.69819-7.5234-1.9156-9.8437-2.7053l-4.2188-1.4358 4.2188 0.47439c7.0213 0.78953 17.812 3.3831 17.812 4.281 0 1.047-0.9225 0.97586-7.9688-0.61433zm-103.11-2.06c-0.2922-2.4492-1.3566-11.166-2.3653-19.37-1.37-11.144-1.5668-15.239-0.7778-16.189 1.5081-1.8172-4.676-7.7999-8.0624-7.7999-0.6904 0-0.6347 7.4276 0.076 10.078 0.9173 3.4231 2.2216 2.414 2.2216-1.7187 0-6.4612 2.311-3.987 2.546 2.7258 0.1703 4.8628-0.1173 6.0743-1.8178 7.6586-1.8688 1.741-1.9367 2.2153-0.9074 6.3347 0.612 2.449 1.4963 7.195 1.9652 10.547 0.4689 3.3516 1.5624 7.3594 2.43 8.9062l1.5775 2.8125-0.5389-3.0935c-0.3343-1.9194-0.1884-2.8769 0.3845-2.5228 0.5079 0.31387 0.9234 1.5302 0.9234 2.7028 0 2.2372 0.6986 3.3822 2.0635 3.3822 0.4475 0 0.5745-2.0039 0.2823-4.4531zm-5.4937-9.3936c-0.2453-0.39694-0.7159-3.8774-1.0457-7.7344-0.3791-4.4333-0.2808-6.4954 0.2672-5.6064 0.4768 0.77344 1.1451 4.2539 1.4852 7.7344 0.5756 5.89 0.3881 7.3778-0.7067 5.6064zm296.36 5.6436c0.532-1.6199-1.8458-1.4697-4.0453 0.25561-1.736 1.3617-1.6935 1.4157 0.9203 1.1719 1.5072-0.14058 2.9134-0.78294 3.125-1.4275zm-89.564-1.7803c3.4656-0.32732 6.126-0.87856 5.9119-1.225-0.9481-1.5341-0.5702-19.104 0.8377-38.944 1.8002-25.369 4.2932-75.097 4.8647-97.035 0.2216-8.5078 0.8164-21.454 1.3218-28.769 0.5054-7.3154 0.9189-17.379 0.9189-22.363v-9.0625l-7.7344 0.77114c-4.2539 0.42413-16.246 0.66889-26.65 0.54392l-18.916-0.22722-1.1946 3.3036c-1.5669 4.3332-2.9198 4.2199-2.5319-0.21197 0.2762-3.1562 0.068-3.5404-2.0361-3.7585-4.967-0.51469-5.1393 0.11636-5.3661 19.662-0.1155 9.9447-0.6392 26.519-1.1639 36.831s-0.9911 25.5-1.0363 33.75c-0.045 8.25-0.1342 18.164-0.1975 22.031-0.063 3.8672 0.021 14.539 0.1872 23.715 0.3135 17.294 0.2018 18.143-2.2603 17.198-1.7515-0.6721-1.3202-139.33 0.4626-148.73 1.1436-6.0298 2.224-5.2688-8.6028-6.0602l-9.0708-0.66303-0.6826 4.5354c-0.7675 5.0995-0.7652 5.7312 0.065 18.129 0.3849 5.7474 0.093 13.229-0.8229 21.094-1.0516 9.0299-1.273 17.078-0.8546 31.063 0.5487 18.338 0.1975 23.16-1.5559 21.36-1.3831-1.4204-0.344-79.446 1.2432-93.351l0.3914-3.4285-6.2273-1.0797c-3.425-0.59381-7.1832-1.2756-8.3516-1.515-3.1048-0.63624-3.9664 2.5941-3.8422 14.406 0.3215 30.596-1.4484 71.173-2.9326 67.233-1.1795-3.1313-0.1444-74.487 1.1317-78.016 1.423-3.9353 1.0047-4.2562-8.17-6.2692-4.125-0.90501-8.7756-2.2192-10.335-2.9204-1.5591-0.7012-4.0903-1.2445-5.625-1.2073-1.5346 0.0372-4.2668-0.55494-6.0715-1.3158-1.8046-0.76088-4.8454-1.6763-6.7572-2.0343s-4.654-1.2654-6.0938-2.0163c-1.4397-0.75098-3.133-1.368-3.7628-1.3712-0.6299-0.003-3.53-1.0605-6.4448-2.3495-2.909-1.3-5.568-2.35-5.904-2.35-0.6682 0-1.5531 26.124-1.3655 40.312 0.065 4.8984 0.1629 18.398 0.2181 30 0.1261 26.512 1.5732 71.098 2.9058 89.531 2.2154 30.645 2.7828 36.307 3.7559 37.479 1.2518 1.5084 5.5074 2.4031 6.1885 1.3011 0.8437-1.3652 2.1092-0.90754 2.7081 0.97936 1.9767 6.228 7.0164 5.3382 6.0017-1.0596-5.3522-33.747-8.0308-194.82-3.1587-189.95 0.6803 0.68028 1.8558 47.334 1.4133 56.09-0.2476 4.8984-0.4145 15.023-0.371 22.5 0.043 7.4766 0.076 16.547 0.073 20.156-0.018 18.383 0.1772 25.993 1.1282 44.062 0.5699 10.828 1.6477 26.438 2.395 34.688 0.7474 8.25 1.3797 15.847 1.4052 16.883 0.051 2.0808 14.731 6.7706 16.299 5.207 0.4309-0.42986 0.327-3.8884-0.2309-7.6855-4.4762-30.467-5.1872-180.01-0.8805-185.2 2.3171-2.7919 3.8897-1.4396 3.1952 2.7479-1.0855 6.5459-1.5345 132.38-0.5071 142.12 0.5081 4.8178 1.146 18.084 1.4176 29.48 0.2715 11.396 0.5873 20.789 0.7017 20.874 0.1144 0.0847 2.267 0.42389 4.7835 0.75371l4.5757 0.59967-0.6218-3.5145c-1.041-5.8846-2.3219-18.738-3.2931-33.046-0.5075-7.4766-1.4103-14.974-2.0062-16.66-0.7895-2.2345-0.8037-3.4035-0.052-4.3089 0.7193-0.86671 1.0393-15.675 1.058-48.965 0.03-53.157 1.015-85.223 2.6691-86.877 1.4344-1.4345 1.4267 24.602-0.013 44.78-0.5888 8.25-0.9752 19.23-0.8587 24.401 0.6303 27.976 0.9626 52.425 0.9115 67.08-0.055 15.709 0.6351 25.643 3.0871 44.457 0.6048 4.6406 1.1264 9.7031 1.1591 11.25l0.059 2.8125 7.0313 0.52326c8.0247 0.59718 8.4375 0.5001 8.4375-1.9848 0-2.8068 1.5742-2.152 2.1865 0.90953 0.6056 3.0284 5.4794 4.9799 7.4687 2.9906 1.4454-1.4455 2.5322-1.285 2.5322 0.37391 0 0.77344 0.7383 1.4368 1.6406 1.4741 4.53 0.18725 8.4897 0.64406 11.13 1.284l2.9265 0.7094-0.4771-19.09c-0.4118-16.481-0.2786-19.255 0.9745-20.295 2.3968-1.9892 2.8836 0.16179 3.2395 14.317 0.1821 7.24 0.4192 15.906 0.5269 19.257l0.1957 6.0938 2.8125-0.18275c4.545-0.29532 5.4763-0.30116 8.4375-0.053l2.8125 0.23573v-10.312c0-25.978 0.485-37.969 1.5356-37.969 0.7838 0 0.9238 6.4527 0.528 24.326l-0.5388 24.326 4.3939 0.34871c8.0479 0.63872 24.939 0.68089 31.32 0.0782zm-9.6601-4.7519c-1.1118-2.9242-0.1505-19.015 1.136-19.015 0.4491 0 0.8166 4.8516 0.8166 10.781 0 11.191-0.3182 12.532-1.9526 8.2334zm-9.7485-0.49899c-0.9613-4.1653 0.6768-46.256 2.3259-59.766 0.032-0.25781 0.3949 0.16406 0.8076 0.9375 0.4128 0.77344 0.4181 8.3672 0.012 16.875-0.4062 8.5078-0.7579 21.902-0.7814 29.766-0.039 13.158-0.9984 18.104-2.3638 12.188zm-26.605-6.5625c0.082-2.1914-0.1107-17.423-0.4284-33.849-0.3177-16.425-0.1327-41.316 0.4112-55.312 0.5438-13.997 1.268-39.02 1.6091-55.606 0.5635-27.395 0.9884-32.599 2.5355-31.052 0.8834 0.88335 0.4944 29.584-0.6389 47.147-1.1705 18.139-1.4788 34.754-1.7526 94.453-0.1021 22.255-0.5322 38.203-1.0302 38.203-0.4702 0-0.7878-1.793-0.7057-3.9844zm17.498 3.489c-0.8397-0.8397 0.1878-25.935 1.1273-27.532 0.5725-0.97363 0.7786 3.5397 0.5845 12.804-0.284 13.557-0.5547 15.886-1.7118 14.729zm-46.2-5.8327c-1.7177-4.3647-2.8898-78.407-1.2319-77.816 0.3668 0.13071 0.8892 8.6752 1.1609 18.988 1.1382 43.2 1.6932 59.102 2.0857 59.766 0.2288 0.38672 0.014 0.70313-0.4766 0.70313-0.4909 0-1.183-0.73828-1.5381-1.6406zm10.028 0.46875c-2.1065-2.573-1.8769-21.328 0.2611-21.328 1.1719 0 1.4063 1.875 1.4063 11.25 0 11.638-0.066 12.035-1.6674 10.078zm-19.292-2.1864c-3.69-18.21-4.11-169.15-0.49-169.15 0.7426 0 0.8538 6.6639 0.3951 23.672-0.9223 34.198-1.1069 95.163-0.323 106.67 0.3699 5.4277 0.8774 15.342 1.1278 22.031 0.2504 6.6894 0.7262 13.077 1.0574 14.196 0.3312 1.1181 0.1892 2.771-0.3156 3.673-0.793 1.417-0.993 1.268-1.4704-1.0954zm-39.294-0.0756c-2.9792-5.0267-6.7775-80.559-4.4474-88.441 1.3176-4.4574 1.7305 0.24544 2.2634 25.781 0.5582 26.749 1.8919 49.782 3.3199 57.334 0.7693 4.0677 0.068 7.357-1.1359 5.3261zm29.904-1.0192c-1.8037-6.2168-4.2409-90.542-2.6454-91.528 1.2362-0.76404 2.3472 17.509 2.1476 35.324-0.1511 13.488 0.9006 37.107 2.3148 51.985 0.5261 5.5346-0.6458 8.2555-1.817 4.2188zm92.824-0.0231c-0.8307-1.3441 0.034-20.419 1.0928-24.117l0.8055-2.8125 0.5839 3.2812c0.3212 1.8047 0.2412 5.0553-0.1777 7.2236s-0.5758 5.9651-0.3487 8.4375c0.4338 4.7214-0.8171 9.8302-1.9558 7.9877zm-142.51-15.32c-3.5888-24.306-7.4321-176.24-4.5315-179.14 1.7488-1.7488 2.1209 6.1492 2.5265 53.631 0.573 67.079 1.0717 85.032 3.1902 114.86 0.7836 11.033-0.038 18.424-1.1852 10.657zm135-19.58c0.2319-12.633 0.647-24.867 0.9223-27.188 1.9059-16.058 1.9651-16.232 2.2306-6.5625 0.3391 12.353-0.035 22.589-1.1484 31.406-0.5208 4.125-1.2797 11.508-1.6865 16.406-0.4838 5.8258-0.5938 0.96187-0.318-14.062zm-58.182 12.313c-1.6963-2.7447-0.3355-104.75 1.3833-103.69 0.5699 0.35221 0.5236 46.2-0.065 64.185-0.042 1.2891 0.2979 10.359 0.7556 20.156 0.4578 9.7969 0.6431 18.34 0.4118 18.984-0.4861 1.3546-1.7575 1.5388-2.4859 0.36014zm67.824-10.907c-0.1256-3.0938-0.1823-6.2578-0.1261-7.0312 0.056-0.77344 0.5332-9.5863 1.06-19.584 1.366-25.928 2.1922-23.479 1.3936 4.1308-0.6667 23.046-1.8434 34.414-2.3275 22.485zm-28.735-13.136c-0.04-14.045 0.483-18.047 2.0314-15.542 0.7826 1.2663 0.8129 27.419 0.034 29.381-1.5472 3.8979-2.0239 0.70395-2.0654-13.84zm-9.034-23.538c0.4691-34.459 1.0757-42.859 2.2598-31.294 0.7571 7.3954-0.9838 63.883-2.0047 65.044-0.3992 0.45398-0.514-14.734-0.2551-33.75zm19.544 4.3308c0.2768-9.0234 1.1226-34.336 1.8796-56.25 0.7569-21.914 1.3973-40.477 1.4231-41.25 0.038-1.1518 0.2118-1.1234 0.9588 0.15669 1.2143 2.0808 1.2336 35.999 0.023 40.078-0.523 1.762-0.9418 12.14-0.9308 23.062s-0.4104 22.559-0.9365 25.859c-0.5262 3.3003-1.0317 9.3756-1.1234 13.501-0.092 4.125-0.5334 8.3438-0.9817 9.375-0.4784 1.1004-0.6072-4.9025-0.3118-14.531zm-9.4965-5.2386c0.6257-7.2249 1.5389-7.5469 1.5389-0.54261 0 3.4565-0.4006 5.7812-0.9963 5.7812-0.6386 0-0.8334-1.8806-0.5426-5.2386zm0.3322-12.932c-0.2881-1.7755-0.1493-12.23 0.3084-23.232s0.8528-25.277 0.878-31.723c0.047-12.158 0.5408-15.938 2.08-15.938 1.6639 0-0.5301 71.908-2.2464 73.624-0.2728 0.27288-0.7318-0.95653-1.02-2.732zm20.533-15.58c0.3359-10.57 0.7086-23.438 0.8282-28.594 0.5535-23.867 1.6836-41.659 2.6098-41.087 0.6484 0.40068 0.7306 7.5296 0.2512 21.779-0.3919 11.651-0.853 27.089-1.0245 34.308-0.4089 17.205-1.2606 28.238-2.3749 30.768-0.5888 1.3366-0.6891-4.6109-0.2898-17.174zm8.813 12.946c0.01-1.1906 0.4234-2.7975 0.9232-3.571 0.6915-1.07 0.9122-0.69102 0.9231 1.5853 0.01 1.6454-0.4075 3.2523-0.9231 3.571-0.5228 0.32309-0.9312-0.3782-0.9232-1.5853zm1.1868-23.727c0.2652-8.25 0.8972-16.055 1.4044-17.344 0.6335-1.6096 0.7752 2.7952 0.4526 14.062-0.2584 9.0234-0.8904 16.828-1.4044 17.344-0.6213 0.62317-0.773-4.0919-0.4526-14.062zm-132.98 8.2435c-0.7954-6.3668 0-88.184 0.8714-89.05 2.0593-2.0593 3.227 33.331 1.5216 46.119-0.8011 6.0077-0.8796 12.217-0.2723 21.562 1.3246 20.384-0.255 36.3-2.1207 21.368zm94.011-16.791c-0.6622-0.6673-0.5363-7.0503 0.7186-36.452 0.1981-4.6406 0.3897-11.099 0.4257-14.352 0.036-3.2531 0.382-5.7192 0.7687-5.4803 0.8777 0.54225 0.5515 36.454-0.4386 48.276-0.4033 4.8157-1.0668 8.4196-1.4744 8.0089zm-31.857-23.093c-0.6303-13.311 0.021-30.483 1.2348-32.555 0.5086-0.86818 0.8488 7.5002 0.8661 21.305 0.03 24.046-1.1866 30.561-2.1009 11.25zm72.46-9.44c0-13.847 0.3338-21.25 0.9582-21.25 0.9019 0 0.3223 41.129-0.5935 42.109-0.2 0.21-0.36-9.17-0.36-20.86zm-30.514-8.4416c-0.34-1.3545-0.1524-3.7988 0.4168-5.4318 0.5693-1.6329 1.035-4.8293 1.035-7.1031s0.3473-3.9195 0.7719-3.6571c0.9754 0.60287 0.2332 16.686-0.8222 17.816-0.4393 0.4704-1.0549-0.24285-1.4015-1.6241zm48.134 175.09c14.334-0.90698 13.335 0.5155 14.81-21.102 0.6828-10.011 1.4821-20.101 1.7761-22.421 0.4996-3.9423 3.3689-51.034 3.7415-61.406 0.093-2.5781 0.475-13.336 0.8496-23.906 0.3747-10.57 1.0597-21.328 1.5224-23.906 0.4626-2.5781 1.0528-12.914 1.3115-22.969 0.2586-10.055 0.4899-18.387 0.5139-18.516 2.1761-11.697 2.1973 11.522 0.042 45.703-0.5366 8.5078-1.2092 22.43-1.4948 30.938-0.2856 8.5078-0.8756 21.375-1.3112 28.594-2.1498 35.625-3.69 63.077-4.1733 74.381l-0.5347 12.506 3.9924-0.62097c7.1893-1.1183 6.7809-0.48004 7.0534-11.021 0.1368-5.2904 0.8742-16.58 1.6387-25.088 0.7644-8.5078 1.8142-23.484 2.3329-33.281 0.5187-9.7969 1.3686-22.453 1.8887-28.125 2.555-27.863 3.6848-46.293 4.2923-70.019 0.6162-24.063 1.1486-29.369 2.7831-27.734 1.1824 1.1824 0.4723 50.507-0.9404 65.317-0.7672 8.0432-2.0605 25.593-2.8739 38.999s-2.3502 34.711-3.415 47.344c-1.0649 12.633-2.2221 26.493-2.5718 30.8-0.8427 10.381-0.6242 10.617 8.3355 8.9982 13.046-2.3573 14.356-2.9664 12.135-5.6433-0.8227-0.99132-0.969-3.4573-0.5119-8.6308 2.3689-26.813 3.3424-39.81 5.7389-76.618 0.8057-12.375 1.8516-25.242 2.3242-28.594 0.4725-3.3516 1.0998-19.805 1.3938-36.562 0.294-16.758 0.7411-32.714 0.9936-35.458 0.4211-4.577 0.3052-4.9643-1.403-4.6875-1.7737 0.28739-1.8863 1.2794-2.3739 20.927-0.4618 18.601-1.7821 46.754-2.77 59.062-0.2069 2.5781-0.8408 13.125-1.4086 23.438-0.5678 10.312-1.653 26.555-2.4116 36.094-0.7585 9.5391-1.6085 21.352-1.8889 26.25-1.2925 22.583-3.2516 30.405-6.7411 26.915-1.398-1.398-1.3923-2.6074 0.072-15.388 0.8742-7.629 1.9993-19.144 2.5003-25.59 0.5009-6.4453 1.7877-22.477 2.8596-35.625 1.0718-13.148 2.0625-28.125 2.2014-33.281 0.9166-34.001 3.4685-77.552 4.7106-80.391 0.5459-1.2474 0.2793-1.6406-1.1121-1.6406-4.3399 0-4.6962 1.8091-5.3541 27.188-0.9584 36.968-3.0832 75.538-5.7329 104.06-2.5654 27.618-3.2742 35.965-3.7015 43.594-0.7439 13.278-1.8173 19.219-3.4729 19.219-1.1298 0-0.376-20.273 1.1503-30.938 0.4797-3.3516 1.3045-13.266 1.8329-22.031 0.5284-8.7656 1.3699-19.102 1.87-22.969 1.4398-11.134 4.1885-61.062 5.2546-95.444l0.6484-20.913-5.4596 0.51792c-3.0027 0.28486-5.737 0.8363-6.0762 1.2254-0.5901 0.67712-3.2233 62.889-2.8671 67.739 0.095 1.2891-0.2735 5.7188-0.8182 9.8438s-1.8226 20.578-2.8398 36.562-2.3035 35.18-2.8585 42.656c-0.5549 7.4766-1.1426 18.15-1.3058 23.719-0.2869 9.7848-0.7268 12.007-2.1045 10.629-1.0779-1.0779-0.4692-26.294 1.0215-42.317 0.7675-8.25 1.6398-20.062 1.9385-26.25 0.2987-6.1875 0.7489-13.781 1.0005-16.875 0.9492-11.672 2.2937-35.224 2.8364-49.688 0.3095-8.25 0.8955-18.586 1.3021-22.969 0.4066-4.3828 0.8204-12.609 0.9194-18.281 0.099-5.6719 0.4255-11.315 0.7254-12.539 0.5439-2.221 0.528-2.2254-5.914-1.6505-3.5525 0.31702-12.088 0.97087-18.966 1.453-15.125 1.06-13.203-1.7269-13.684 19.849-0.2229 10.01-0.8247 26.427-1.3375 36.482-1.2507 24.527-1.8945 40.513-2.8767 71.431-0.4536 14.279-1.0441 26.317-1.3122 26.751-0.4896 0.79226-2.0168 18.436-3.0154 34.837l-0.5359 8.8003 2.6718-0.53435c1.4694-0.29389 7.4025-0.8337 13.185-1.1996zm-1.3639-12.351c0.3072-5.543 0.9882-15.352 1.5133-21.797 0.9434-11.579 1.9539-28.588 3.7595-63.281 0.5099-9.7969 1.57-28.143 2.3557-40.768 0.7858-12.626 1.4708-28.657 1.5221-35.625 0.102-13.82 1.3701-21.715 1.8846-11.732 0.34 6.6001 0.3389 6.6907-0.4011 30.757-0.314 10.213-0.7952 21.604-1.0692 25.312-0.274 3.7087-0.7096 15.602-0.9679 26.431-0.2583 10.828-1.1099 27.07-1.8924 36.094-0.7826 9.0234-1.1714 17.572-0.864 18.998 0.3074 1.4253-0.079 6.9097-0.8584 12.188-0.7795 5.2778-1.7019 13.604-2.0497 18.502-1.0898 15.347-1.0335 15-2.4332 15-0.7546 0-0.8978-2.8896-0.4993-10.078zm-7.8178-2.3523c0-6.0118 0.422-14.006 0.9378-17.766 0.9419-6.8656 2.1728-27.299 3.7439-62.148 0.4649-10.312 1.1426-20.859 1.506-23.438 1.2789-9.073 1.958-0.58958 1.013 12.656-0.4965 6.9609-0.9648 21.516-1.0406 32.344-0.076 10.828-0.6382 22.852-1.2497 26.719-0.6116 3.8672-1.5746 14.625-2.14 23.906-1.1968 19.644-2.7704 24.032-2.7704 7.7258zm17.29-4.4446c0.2084-8.5078 0.8304-21.164 1.3822-28.125 1.5366-19.381 3.7114-55.065 4.3425-71.25 0.3116-7.9922 0.7611-18.75 0.9989-23.906 0.2377-5.1562 0.7646-17.824 1.1709-28.151 0.4329-11.005 1.1825-19.541 1.8109-20.625 1.3999-2.4141 1.4849 24.143 0.1517 47.37-0.518 9.0234-1.3662 25.898-1.885 37.5s-1.3289 25.523-1.8002 30.938c-0.4713 5.4141-0.8806 14.78-0.9096 20.813-0.029 6.0332-0.4777 12.994-0.9971 15.469-0.5194 2.4746-1.0644 7.7513-1.2111 11.726s-0.5654 7.5255-0.9306 7.8906c-0.3651 0.36515-0.706 3.0194-0.7573 5.8983-0.052 2.8789-0.4651 6.2891-0.9192 7.5781-0.5117 1.4522-0.6817-3.5402-0.447-13.125zm-9.3813-126.09c0.8483-28.65 1.3014-36.599 2.3518-41.25 1.1696-5.1792 0.5234 43.472-0.7202 54.224-1.7107 14.791-2.3121 10.009-1.6316-12.974zm83.42 140.17c6.6645-2.4904 9.609-4.4086 8.4881-5.5295-0.7337-0.73375-20.035 6.5964-21.258 8.0734-1.6929 2.044 2.9873 1.1117 12.77-2.5439zm16.298-0.94401c1.9068-1.0163 7.8966-3.9986 13.311-6.6272 5.4141-2.6286 10.922-5.8049 12.239-7.0584 1.3173-1.2535 3.1468-2.279 4.0655-2.279 1.7015 0 13.632-7.8319 17.764-11.661 2.5162-2.3319 5.9154-12.48 4.6156-13.78-0.4631-0.46313-3.3638 1.5783-6.7068 4.7201-5.0767 4.7711-5.6685 5.6606-4.2823 6.4364 1.271 0.71128 1.349 1.0605 0.3715 1.6646-0.7363 0.45511-1.3857 0.31792-1.6047-0.33902-0.5862-1.7585-2.7428-1.2834-4.5967 1.0127-0.9398 1.1639-3.818 3.2173-6.3962 4.563-19.995 10.437-22.537 12.071-18.783 12.071 1.3192 0 8.3448-3.5899 12.195-6.2313 1.017-0.69776 2.3876-1.2687 3.0456-1.2687s3.6989-1.9434 6.7575-4.3186 6.0824-4.1448 6.7196-3.9324c1.6186 0.53955-3.4515 5.1077-7.8251 7.0503-1.9336 0.85884-3.5156 1.9127-3.5156 2.3418 0 0.42915-0.9492 1.1549-2.1094 1.6127-1.1601 0.45783-6.2981 3.1625-11.418 6.0105-5.1196 2.8479-12.397 6.3573-16.172 7.7985-3.7749 1.4413-6.8635 2.9449-6.8635 3.3413 0 1.4031 5.7701 0.69536 9.1893-1.1271zm-269.11-3.07c-0.2122-0.64453-1.3036-1.3069-2.4251-1.4719-2.0186-0.29697-8.3777-3.4503-25.296-12.543-8.4357-4.534-11.339-5.4219-7.9146-2.4209 2.6675 2.338 18.656 10.759 31.178 16.421 3.1609 1.4293 4.9256 1.4352 4.4578 0.0148zm258.59-5.3604c3.306-1.5302 6.011-3.2177 6.011-3.75 0-1.3895-0.8821-1.2245-5.625 1.0518-2.3203 1.1137-4.8265 2.3051-5.5692 2.6477-1.4186 0.6543-2.5394 2.8327-1.4574 2.8327 0.3463 0 3.3345-1.252 6.6406-2.7822zm-25.421 0.33029c1.1568-1.1568 1.3689-2.4852 0.898-5.625-0.3673-2.4494-0.2496-4.1106 0.2912-4.1106 1.0851 0 2.3337-10.519 5.342-45 6.065-69.518 6.5303-74.092 7.5019-73.764 1.3879 0.46817 1.1396 9.4115-1.3319 47.983-0.5286 8.25-1.2218 15.633-1.5404 16.406-0.3186 0.77344-1.1497 9-1.8468 18.281-1.2287 16.36-3.2524 34.77-4.61 41.94l-0.6632 3.5024 3.1487-1.0047c7.3142-2.3338 8.3608-2.941 7.8489-4.5539-0.2772-0.8733 0.5735-9.3606 1.8905-18.861 3.7006-26.696 9.3271-87.256 10.75-115.71 2.6488-52.962 2.946-56.391 4.7887-55.252 1.8609 1.1501 0.2297 47.082-2.9634 83.442-1.0836 12.339-2.0988 24.545-2.256 27.123-0.4587 7.5244-3.2215 36.711-4.3928 46.406-0.5917 4.8984-1.5408 13.361-2.1091 18.806-0.6727 6.4453-1.6131 10.779-2.6954 12.422-2.1704 3.2937-0.308 3.4123 5.881 0.37454 4.2072-2.065 4.2206-2.0875 4.9004-8.1645 0.6369-5.6926 1.5747-13.739 3.4419-29.531 0.4268-3.6094 1.435-10.992 2.2405-16.406 2.4799-16.669 5.3355-45.104 5.5077-54.844 0.027-1.5469 0.6204-8.0859 1.3179-14.531 0.6976-6.4453 1.4858-16.148 1.7516-21.562 0.2658-5.4141 0.7144-13.852 0.9969-18.75 0.9831-17.048 1.1776-30.938 0.4332-30.938-3.1698 0-3.7762 1.2215-3.198 6.4414 0.5563 5.0221-0.4264 26.57-2.4211 53.09-0.5041 6.7031-1.3608 18.094-1.9037 25.312-0.5428 7.2188-1.3393 18.188-1.77 24.375-0.4307 6.1875-2.0717 20.109-3.6466 30.938-1.575 10.828-2.8311 21.164-2.7915 22.969 0.04 1.8047-0.6497 7.2891-1.5319 12.188-0.8822 4.8984-1.8 10.277-2.0394 11.953-0.452 3.1636-2.2281 4.2876-2.2219 1.4062 0-0.90235 1.4409-12.82 3.1978-26.484 1.7568-13.664 3.4661-28.43 3.7984-32.812 0.3324-4.3828 1.2058-13.031 1.941-19.219 1.5532-13.072 2.9881-33.71 3.7225-53.541 0.2843-7.6777 0.7064-15.225 0.9379-16.772 0.2316-1.5469 0.6685-10.512 0.9709-19.922 0.6166-19.187 1.0536-18.166-6.6033-15.421l-4.6875 1.6806-0.2037 8.3938c-0.6215 25.603-2.1849 55.613-3.9049 74.956-0.5502 6.1875-1.2522 14.836-1.56 19.219-0.3078 4.3828-0.9588 11.977-1.4467 16.875-0.488 4.8984-1.3152 13.969-1.8384 20.156-0.5232 6.1875-1.5903 15.891-2.3713 21.562-0.7811 5.6719-1.8346 13.688-2.3413 17.812-1.2913 10.513-1.6368 11.719-3.3571 11.719-1.6379 0-1.5936-1.0138 0.6748-15.469 0.5665-3.6094 1.1577-8.4609 1.3139-10.781 0.1561-2.3203 0.725-8.6484 1.2642-14.062 0.5391-5.4141 1.433-15.328 1.9864-22.031 0.9703-11.754 2.0581-23.869 3.8299-42.656 0.7898-8.3754 1.8329-27.5 3.5792-65.625 0.4134-9.0234 1.1106-17.212 1.5495-18.198 0.701-1.5735 0.5223-1.703-1.4695-1.0654-1.2471 0.39923-3.8571 0.93396-5.8 1.1883-5.8717 0.7686-6.1615 1.8364-6.2709 23.107-0.097 18.771-1.0384 39.321-2.9916 65.28-0.5626 7.4766-1.1628 16.547-1.3337 20.156-0.171 3.6094-0.7631 10.781-1.3157 15.938-3.6187 33.762-4.9223 47.183-5.4825 56.442-0.567 9.3705-1.8291 13.927-3.4175 12.339-0.2582-0.2582-0.079-5.2926 0.3986-11.187 3.1137-38.444 3.9278-48.743 4.1822-52.906 0.1575-2.5781 0.7671-8.9062 1.3546-14.062 1.6922-14.853 3.8707-55.03 4.3971-81.094 0.2656-13.148 0.6424-25.513 0.8373-27.476 0.3363-3.3864 0.2262-3.5551-2.1416-3.2812-1.6719 0.19339-2.3789 0.75316-2.141 1.695 0.4472 1.7701 0.1044 39.569-0.3657 40.329-0.1908 0.30862-0.5791 7.6692-0.8631 16.357-0.2839 8.6876-1.1484 24.694-1.9212 35.57-1.8386 25.878-1.8759 26.354-4.6327 59.15-2.4683 29.364-2.8366 37.236-1.7913 38.281 1.1838 1.1838 5.8066 0.622 7.318-0.88944zm13.34-156.69c0.6066-29.752 1.0599-34.307 3.4607-34.769 2.7595-0.53144 1.104 53.315-1.7828 57.986-1.8052 2.9208-2.1216-1.4568-1.6779-23.217zm32.418 147.33c3.2071-1.3385 6.6749-3.1884 7.7061-4.111 1.0313-0.92258 2.9297-1.988 4.2188-2.3676 5.1273-1.5099 18.322-9.8378 15.586-9.8378-0.3194 0-3.8515 1.7678-7.8492 3.9284-9.9292 5.3665-25.471 12.947-26.545 12.947-0.4838 0-0.8797 0.42187-0.8797 0.9375 0 1.4275 1.4074 1.1562 7.7626-1.4961zm-286.61-4.6c-1.2077-9.6823-1.4657-12.72-1.9905-23.438-0.303-6.1875-0.9626-12.851-1.4659-14.808-2.115-8.2243-2.7723-147.95-0.7141-151.8 1.2589-2.3523 0.2854-3.5525-2.8815-3.5525-3.3943 0-5.2556 88.845-2.73 130.31 2.5187 41.354 2.9997 48.007 4.2195 58.359 0.4267 3.6213 0.2536 4.4531-0.927 4.4531-1.87 0-2.5315-4.6758-4.8408-34.219-2.2269-28.487-2.9616-151.62-0.9486-158.99 0.6306-2.3074 0.3579-2.5275-5.6402-4.5536-3.4666-1.1709-8.2486-3.2679-10.627-4.6598-4.8086-2.8145-16.795-8.5182-17.901-8.5182-2.7725 0-2.4801 140.44 0.3085 148.12 0.2805 0.77344 0.9652 8.1562 1.5216 16.406 1.1691 17.334 2.5087 25.563 4.5438 27.913 1.9823 2.2885 3.2824 0.64875 2.0518-2.5878-3.1402-8.2595-7.605-86.513-6.9544-121.89 0.4643-25.242 1.3471-48.513 1.9282-50.828 1.3832-5.5112 1.8755 0.37923 1.5612 18.68-0.3557 20.703-0.2485 73.045 0.1647 80.43 0.1298 2.3203 0.7181 13.078 1.3072 23.906 0.5892 10.828 1.2912 20.757 1.56 22.064s0.5071 4.471 0.5295 7.0312c0.082 9.4148 2.686 26.042 4.3693 27.903 1.5316 1.6937 7.8303 5.3456 9.22 5.3456 0.6346 0 0.2301-6.2695-1.5119-23.438-3.7035-36.499-3.7207-163.16-0.023-165.45 1.3618-0.84159 1.912 7.2224 1.4061 20.606-2.0294 53.684 0.6713 150.55 4.7334 169.77 0.3497 1.655 8.5979 7.8199 10.595 7.9191 0.3525 0.0175 2.3284 0.84693 4.3909 1.8432 5.1789 2.5016 5.3394 2.4223 4.7449-2.3438zm-14.882-5.8441c-5.3519-9.0835-9.3847-184.07-4.3581-189.1 0.496-0.49596 0.9109-0.71192 0.922-0.47989 0.011 0.23204 0.02 23.625 0.02 51.984-0.0002 49.223 0.8249 78.482 2.9084 103.12 0.5232 6.1875 1.0695 14.015 1.2142 17.395 0.1446 3.3796 0.5581 8.5071 0.9188 11.394 0.5849 4.6811-0.3299 7.8778-1.6252 5.6793zm-15.953-8.4528c-0.878-1.48-2.392-11.33-2.915-18.99-2.596-37.98-3.48-57.77-3.916-87.7-0.278-19.103-0.5781-35.345-0.6669-36.094-0.089-0.74903 0.3818-9.3775 1.0458-19.174 0.664-9.7969 1.2967-19.711 1.4059-22.031 0.166-3.5276 0.5057-4.2188 2.0735-4.2188 1.857 0 1.8707 0.47321 1.4197 49.219-0.5424 58.625-0.5842 55.772 1.3515 92.344 0.8461 15.984 1.6843 32.227 1.8627 36.094 0.1785 3.8672 0.419 7.4531 0.5344 7.9688 0.5949 2.6557-1.0187 4.5497-2.1963 2.5781zm-11.879-187.27c0-2.3203 0.4219-4.2188 0.9375-4.2188s0.9375 1.8984 0.9375 4.2188c0 2.3203-0.4219 4.2188-0.9375 4.2188s-0.9375-1.8984-0.9375-4.2188zm320.86 192.13c1.872-8.9231 2.9848-17.993 6.7794-55.253 1.3128-12.891 2.8511-27.023 3.4185-31.406 0.5674-4.3828 1.1681-10.711 1.3348-14.062 0.1667-3.3516 0.7814-12.844 1.366-21.094 2.7213-38.407 2.7613-58.593 0.1163-58.594-1.3604-0.00045-1.4976 1.422-1.2103 12.554 0.3146 12.196-2.8165 69.381-4.5228 82.602-0.4659 3.6094-1.3261 11.625-1.9116 17.812-0.5856 6.1875-1.6809 14.534-2.4341 18.548s-1.151 7.6518-0.884 8.0838c0.4733 0.76583-0.4647 10.262-2.4161 24.462-0.5315 3.8672-1.3011 9.5625-1.7102 12.656-0.4092 3.0938-1.0643 7.2612-1.4559 9.2611-0.5537 2.8282-0.4359 3.5441 0.5302 3.222 0.7103-0.23676 1.9946-4.0012 2.9998-8.7923zm5.1617 3.5748c1.7725-6.1761 2.9311-13.532 3.9505-25.078 0.5463-6.1875 1.401-14.625 1.8995-18.75 2.1071-17.438 3.792-33.586 4.6953-45 0.5305-6.7031 1.1622-13.242 1.4038-14.531 1.1164-5.9572 5.1512-69.258 5.1512-80.816 0-2.7057-1.2653-3.2786-3.75-1.6981-1.1563 0.73552-1.199 1.229-0.2404 2.7757 1.3437 2.1683 1.0445 13.79-1.1357 44.114-2.6084 36.28-3.3979 45.477-4.2913 49.993-0.4923 2.4886-0.8938 6.2854-0.8923 8.4375 0 2.1521-0.6131 9.1863-1.3661 15.632-0.7529 6.4453-2.0266 18.258-2.8303 26.25-1.5119 15.033-3.8508 32.544-5.1654 38.672-0.5518 2.5723-0.4434 3.5156 0.404 3.5156 0.637 0 1.6122-1.582 2.1672-3.5156zm-320.37-0.68c-0.6522-0.78591-2.0834-1.4261-3.1805-1.4227-1.77 0.006-1.6822 0.21208 0.7798 1.835 3.0577 2.0156 4.2462 1.8115 2.4007-0.41226zm327.31-3.8469c0.3337-2.5373 1.7036-14.316 3.0442-26.176 1.3406-11.859 2.9464-24.727 3.5684-28.594 0.6221-3.8672 1.0486-8.5078 0.9479-10.312-0.1007-1.8047 0.2636-6.2344 0.8095-9.8438 0.546-3.6094 1.5764-13.102 2.2898-21.094 0.7135-7.9922 1.751-19.382 2.3056-25.311 3.567-38.134 4.804-64.689 3.0134-64.689-2.4717 0-4.1403 2.5413-3.0304 4.6152 1.688 3.154-1.7405 58.133-5.5877 89.604-0.5043 4.125-1.3104 12.821-1.7915 19.324-0.481 6.5034-1.303 14.308-1.8266 17.344-1.1409 6.6144-2.8248 23.103-3.4838 34.113-0.2623 4.3828-0.921 10.711-1.4638 14.062-2.0784 12.834-2.0561 12.447-0.6897 11.996 0.7354-0.2429 1.5483-2.4047 1.8947-5.0387zm5.6531-0.15304c-0.1666-1.6562 0.1384-4.392 0.6777-6.0795 1.88-5.883 7.5406-48.805 9.4921-71.975 0.456-5.4141 1.2667-15.117 1.8015-21.562 0.5348-6.4453 1.6066-18.469 2.3817-26.719 2.9143-31.017 4.3907-61.529 3.0435-62.896-1.8382-1.8654-2.5912 2.2759-3.0062 16.534-0.247 8.4835-1.1064 22.596-1.9099 31.362-0.8035 8.7656-1.6618 19.523-1.9073 23.906-0.2455 4.3828-1.0831 14.719-1.8613 22.969-1.5886 16.842-1.751 18.392-3.7804 36.094-0.798 6.9609-1.5985 14.344-1.7787 16.406-0.3323 3.8018-0.8824 7.7644-4.2299 30.469-2.2813 15.473-2.2767 15.21-0.2607 14.82 1.2375-0.23937 1.5662-1.0574 1.3379-3.3286zm7.445-1.5639c0.061-0.56176 0.065-1.3271 0.01-1.7008-0.057-0.37366 0.5531-3.7487 1.3551-7.5 2.898-13.555 10.327-81.586 13.542-124.01 2.3765-31.361 2.7809-38.328 2.7885-48.047 0.01-8.7537-0.2309-10.547-1.3981-10.547-1.0272 0-1.4099 1.0738-1.4198 3.9844-0.051 14.946-3.8819 65.973-7.5133 100.08-6.1302 57.574-7.7429 70.982-9.3591 77.812-3.4644 14.642-3.4025 13.359-0.5823 12.074 1.3576-0.61853 2.5183-1.5842 2.5793-2.146zm-351.68-1.43c0-0.48111-1.8984-2.4304-4.2188-4.3317-2.795-2.29-4.219-4.19-4.219-5.63 0-2.9849-1.525-3.6686-4.2298-1.8963-2.1412 1.403-2.373 4.2977-0.3442 4.2977 0.4678 0 3.1813 1.8984 6.03 4.2188 5.1081 4.1606 6.9815 5.0579 6.9815 3.344zm359.66-2.6552c0.5852-0.37882 1.2761-2.5872 1.5355-4.9075 1.6591-14.844 3.4871-28.292 3.9469-29.036 0.5365-0.86811 2.0399-13.279 2.8988-23.932 0.5841-7.2432 2.9418-34.531 4.1311-47.812 0.5079-5.6719 1.3668-16.43 1.9086-23.906 0.5418-7.4766 1.4032-18.234 1.9142-23.906 1.3987-15.523 1.5769-40.051 0.2943-40.495-0.732-0.25335-1.2455 3.6079-1.671 12.565-0.9548 20.098-2.3531 40.631-3.8493 56.524-1.5586 16.556-2.6918 29.24-4.6483 52.031-0.7525 8.7656-2.03 20.789-2.839 26.719-0.8089 5.9297-1.876 14.367-2.3713 18.75-0.4953 4.3828-1.464 12.504-2.1527 18.047-1.2393 9.9746-1.1693 10.702 0.9022 9.3606zm17.217-6.2584c0-0.74301-0.3927-1.5936-0.8727-1.8903-1.1146-0.68886-2.2356 1.0667-1.4711 2.3037 0.8621 1.3949 2.3438 1.1335 2.3438-0.41342zm-9.0286-3.5606c0.3075-1.6815 1.0015-7.276 1.5424-12.432 0.5408-5.1562 1.8136-14.485 2.8285-20.731 1.0149-6.2459 1.8498-13.629 1.8554-16.406 0.01-2.7775 0.8448-12.433 1.8648-21.456 1.02-9.0234 1.8695-19.148 1.8877-22.5 0.018-3.3516 0.4484-7.8939 0.956-10.094s1.1007-7.0517 1.3181-10.781c0.7058-12.11 3.382-38.545 3.9559-39.076 0.98-0.90736-3.1924 62.964-4.8349 74.014-0.2682 1.8047-0.901 7.9219-1.4062 13.594-0.5051 5.6719-1.5705 16.219-2.3675 23.438-0.797 7.2188-1.6068 17.767-1.7994 23.44-0.1927 5.6733-0.657 11.95-1.0319 13.949-0.527 2.8088-0.401 3.5399 0.555 3.2212 2.0207-0.67356 6.6586-32.178 8.4324-57.281 0.5386-7.6221 1.1636-14.372 1.3888-15 0.5192-1.4473 2.2739-21.01 3.2559-36.298 0.414-6.4453 1.2303-18.68 1.8138-27.188 2.6376-38.453 3.3079-56.81 2.1019-57.555-1.9453-1.2023-2.7318 2.8463-3.3498 17.243-0.6683 15.571-1.3445 21.227-2.3901 19.992-0.3599-0.42524-0.4125-7.248-0.1169-15.162 0.5336-14.285 0.2974-15.791-2.3199-14.786-1.0974 0.42109-1.3661 3.0282-1.3856 13.442-0.013 7.106-0.4421 17.139-0.9528 22.295-2.0129 20.32-2.9164 30.239-3.2445 35.618-0.1884 3.0899-0.5682 6.8868-0.8439 8.4375s-0.7675 7.0383-1.0928 12.195c-0.3254 5.1562-0.725 9.5938-0.888 9.8613-0.163 0.26745-0.5618 5.33-0.8862 11.25-0.3243 5.92-1.0292 14.139-1.5664 18.264s-1.3206 10.242-1.7409 13.594c-0.4204 3.3516-1.1894 8.8359-1.7089 12.188-2.3864 15.394-2.2289 43.834 0.17 30.713zm-365.93-13.88c-4.042-37.4-5.226-61.07-5.666-113.39-0.1064-12.633 0.066-24.445 0.3842-26.25 0.3177-1.8047 0.9576-9.3124 1.4219-16.684 0.4643-7.3714 1.3151-13.97 1.8908-14.664 0.8247-0.99375-0.2019-2.1792-4.8429-5.5922-3.2392-2.3821-6.9441-5.1646-8.2332-6.1832-3.2024-2.5307-3.4901-2.3969-3.523 1.6384-0.016 1.9336-0.4829 8.5781-1.0381 14.766-2.0231 22.547-1.8586 102.07 0.2464 119.06 0.2555 2.0625 0.7151 10.765 1.0214 19.339 0.7409 20.739 5.1683 41.985 5.1683 24.802 0-4.2503 1.1424-5.6832 2.2434-2.8139 0.313 0.8156 0.5691 3.7965 0.5691 6.6241 0 5.6457 1.1866 8.7679 3.3321 8.7679 0.9614 0 1.2412-0.65154 0.9058-2.1094-5.2671-22.895-9.228-175.26-4.7445-182.52 3.3054-5.3483 5.1453 4.4207 3.2549 17.282-2.9671 20.188 0.2377 133.94 4.5679 162.13 0.4701 3.0606 0.6648 6.2911 0.4326 7.179-0.3837 1.4673 3.1684 6.1829 4.0177 5.3336 0.1982-0.19815-0.4355-7.7216-1.4082-16.719zm-13.482-9.0727c-0.7084-1.1461-2.5181-19.156-2.0078-19.982 0.2231-0.36111-0.028-4.2041-0.5586-8.5399-0.6373-5.2106-0.6509-8.6683-0.04-10.199 1.1114-2.7849 0.9897-3.7092 1.9783 15.028 0.3945 7.4766 1.1917 15.679 1.7716 18.229 0.9611 4.2254 0.2352 7.694-1.1434 5.4633zm-3.761-60.02c-0.7138-10.78-0.8277-51.39-0.1422-50.7 0.26 0.26002 0.6978 8.8733 0.9729 19.141 0.2751 10.267 0.7407 23.625 1.0347 29.683 0.6541 13.481-0.9875 15.132-1.8654 1.875zm0.1237-95.15c0.3576-15.435 0.5756-16.672 2.5833-14.665 1.1948 1.1948 1.2214 3.1078 0.1999 14.386-1.5847 17.497-3.1859 17.657-2.7832 0.27836zm3.0113 173.23c0-1.1999-2.6521-3.3142-4.1571-3.3142-0.7419 0-0.665 3.3029 0.095 4.0625 1.1659 1.1659 4.0625 0.63242 4.0625-0.74827zm206.48-140.24c1.6029 0.0463 2.5781-0.41485 2.5781-1.2192 0-2.3665 28.138-3.8025 29.556-1.5084 1.155 1.8689 38.273-1.2219 44.843-3.734 2.2905-0.87583 2.5036-1.2372 1.4665-2.4869-0.9782-1.1786-0.9827-1.6048-0.023-2.1977 0.9241-0.57112 0.8738-0.85699-0.2247-1.2786-2.1156-0.81184-8.1173 1.1154-8.1173 2.6067 0 2.404-12.707 4.1627-15.858 2.1949-1.4489-0.90487-2.3787-0.95576-3.595-0.19678-0.9375 0.58502-2.4442 0.70958-3.5157 0.29067-1.0312-0.40321-4.4062-0.56243-7.5-0.35381-18.166 1.225-25.781 1.3601-25.781 0.45748 0-0.56591 2.6251-0.97981 6.3281-0.99777 3.4805-0.0169 9.2813-0.43192 12.891-0.92234 3.6094-0.49041 10.57-1.321 15.469-1.8457 9.6141-1.0299 33.827-5.6611 42.188-8.0693 2.8359-0.81685 6.8437-1.8108 8.9062-2.2088 18.19-3.5099 53.906-16.671 53.906-19.864 0-1.081-1.5315-1.0226-3.5284 0.13453-2.2837 1.3234-23.164 9.2657-28.815 10.961-2.5781 0.77325-6.3947 1.9992-8.4813 2.7244-2.0865 0.72518-8.6256 2.3289-14.531 3.5638-5.9056 1.2349-13.691 2.9545-17.3 3.8213-14.291 3.4321-21.491 4.2957-66.094 7.9272-15.1 1.2294-33.639 1.2516-42.354 0.0506-3.7755-0.52031-9.3959-1.1226-12.49-1.3384-9.0131-0.6288-21.084-2.2583-31.054-4.1923-5.0922-0.9877-11.157-2.0594-13.477-2.3816-2.3203-0.32217-7.8046-1.651-12.188-2.953-4.3828-1.302-11.766-3.3586-16.406-4.5702-16.815-4.3901-42.333-14.027-56.25-21.243-19.518-10.12-32.437-18.117-37.016-22.915-5.6796-5.951-6.578-6.2057-6.578-1.865 0 4.3688 1.3708 7.652 4.3461 10.409 1.8979 1.7588 2.1231 2.3078 0.9471 2.3078-2.4587 0-1.7923 2.4791 1.3038 4.8506 1.5659 1.1994 4.2026 3.2389 5.8594 4.5324 9.0925 7.0982 22.107 14.411 35.825 20.131 4.6406 1.935 9.7031 4.0578 11.25 4.7174 13.038 5.5599 52.281 17.274 65.625 19.589 5.1562 0.89457 13.805 2.5165 19.219 3.6042 18.11 3.6387 26.641 4.3402 46.875 3.8548 10.57-0.25359 20.379-0.42755 21.797-0.38659zm-37.73-2.51c-2.8359-0.11618-8.0021-0.65313-11.48-1.1932-3.4783-0.54009-9.1736-1.4257-12.656-1.968-3.4827-0.54229-9.2853-1.5643-12.895-2.2712-3.6093-0.70686-10.992-2.143-16.406-3.1915-5.4141-1.0485-13.641-2.9976-18.281-4.3315-4.6406-1.3338-10.355-2.9694-12.699-3.6346-2.3441-0.66521-5.1641-1.6922-6.2665-2.2823-1.1025-0.59002-2.8244-1.0728-3.8264-1.0728s-2.347-0.63281-2.9889-1.4062c-1.6482-1.986-0.9297-1.8454 12.188 2.3841 12.923 4.167 23.091 6.5766 39.375 9.3311 5.9297 1.003 14.119 2.7035 18.198 3.7787 7.3308 1.9323 18.142 3.2792 35.005 4.3613 15.022 0.96397 9.1683 2.1693-7.2656 1.496zm-108.28-25.22c-3.6093-1.2739-7.4062-2.5669-8.4375-2.8734-1.0312-0.30649-2.2968-0.84949-2.8125-1.2067-0.5156-0.35717-3.6796-1.6508-7.0312-2.8748-12.586-4.5964-43.128-23.393-38.01-23.393 0.5788 0 9.7832 5.4385 12.698 7.5024 3.3464 2.3699 15.354 8.9239 22.5 12.281 3.3516 1.5744 7.3594 3.5074 8.9062 4.2954 1.5469 0.78808 5.9766 2.5676 9.8438 3.9544 6.8651 2.462 11.72 4.7687 9.8437 4.6766-0.5156-0.0253-3.8906-1.0882-7.5-2.3621zm-38.907-23.32c-4.6996-2.4604-5.5569-3.2007-3.747-3.2358 1.2907-0.025 4.4236 1.4311 6.9619 3.2358 5.7913 4.1175 4.65 4.1175-3.2149 0zm-13.125-8.3062c-5.16-3.7959-7.3421-6.225-5.592-6.225 1.1807 0 10.803 7.0094 11.77 8.5738 1.1297 1.828-2.2438 0.54537-6.178-2.3488zm222.19 58.47c0-0.51563-1.2656-0.9375-2.8125-0.9375s-2.8125 0.42187-2.8125 0.9375c0 0.51562 1.2656 0.9375 2.8125 0.9375s2.8125-0.42188 2.8125-0.9375zm90.938-13.638c4.3828-1.1924 9.8672-2.7941 12.188-3.5593 2.3203-0.76524 6.5391-2.0976 9.375-2.9607 12.96-3.9445 45.36-22.029 39.467-22.029-1.0382 0-11.188 5.2047-15.168 7.7783-1.247 0.80628-7.7516 3.8746-14.455 6.8186-6.7031 2.944-12.82 5.8639-13.594 6.4887-1.458 1.1778-17.752 5.6894-25.544 7.0729-5.1387 0.91235-6.5799 1.6174-5.8198 2.8472 0.5937 0.96058 1.7874 0.74422 13.552-2.4564zm-96.894-0.94483c1.7633-0.35401 1.9238-0.79526 1.2982-3.5693-0.3927-1.741-0.3938-8.8103 0-15.71 0.7632-13.457 0.3723-61.24-0.5604-68.505-0.6398-4.9834 0.215-8.9514 1.6247-7.5417 1.9057 1.9057 2.951 21.761 3.0377 57.702l0.09 37.324 7.5-0.58506c4.125-0.32178 13.195-1.5963 20.156-2.8322 6.9609-1.2359 13.834-2.3701 15.274-2.5202l2.6178-0.27307 0.4579-13.896c0.2518-7.6426 0.013-20.932-0.531-29.531-1.6077-25.422-2.1806-52.33-1.0913-51.261 1.887 1.8533 3.3652 27.592 4.2987 74.85 0.1939 9.8137 0.7312 17.126 1.3003 17.695 1.1508 1.1508 9.2203 0.15041 10.086-1.2503 1.2471-2.0179 0.01-53.538-1.5092-62.701-0.4692-2.8359-0.9699-11.59-1.1126-19.453-0.2897-15.963 0.116-15.239-7.2907-13.004-2.3203 0.70009-8.0157 1.5647-12.656 1.9214-6.9137 0.53139-14.531 1.9592-14.531 2.7237 0 0.0923 0.4236 1.6416 0.9414 3.4429 1.5332 5.3333 3.5193 86.113 2.2017 89.547-1.4737 3.8405-1.9502-2.3049-2.0976-27.05-0.1881-31.575-0.8678-50.997-1.9923-56.927-0.4544-2.3965-0.6016-5.2168-0.3268-6.2673 0.7162-2.7389-0.6738-3.1999-7.5294-2.4975-8.4589 0.86664-8.656 1.4775-6.6669 20.658 1.015 9.7871 1.558 23.692 1.5879 40.656 0.059 33.41 0.014 34.688-1.2068 34.688-0.6939 0-0.9642-3.4155-0.8345-10.547 0.3538-19.452-0.8333-62.38-1.8855-68.183-0.5728-3.1588-0.7595-7.6236-0.4149-9.9217 0.994-6.6286-8.9279-9.5074-14.876-4.3161-1.3688 1.1948-2.0393 1.2615-3.5015 0.34833-1.205-0.75252-6.3191-1.111-15.325-1.0742-7.4343 0.0304-18.189-0.24035-23.899-0.60169-12.714-0.80448-11.089-7.1521-12.081 47.207-0.8511 46.669-1.0736 48.942-4.5137 46.087-1.8174-1.5083-1.36-23.841 1.7972-87.759l0.3323-6.7289-4.7767-0.5749c-12.547-1.5102-23.73-3.6216-25.659-4.8449-1.1727-0.74359-3.7244-1.258-5.6703-1.1432-1.946 0.11482-4.1486-0.16853-4.8947-0.62967-0.7462-0.46113-3.0461-0.90837-5.1109-0.99386-2.0649-0.0855-5.4418-0.58838-7.5043-1.1176-15.117-3.8784-23.55-6.3234-30.304-8.7856-10.037-3.659-10.041-3.6497-12.31 28.735-0.5059 7.2188-1.3429 18.609-1.86 25.312-0.5171 6.7031-0.9525 16.882-0.9676 22.62-0.027 10.464-0.9026 13.376-3.5318 11.751-1.4807-0.91516-1.6907-23.687-0.3428-37.183 1.6125-16.145 2.8486-29.121 3.8299-40.204 0.5599-6.3221 1.4631-11.057 2.3744-12.448 1.3998-2.1358 1.2097-4.0669-0.4001-4.0669-2.5531 0-36.898-17.83-40.394-20.97-3.0203-2.7129-9.9919-7.1545-11.23-7.1545-0.5267 0-0.9576-0.37674-0.9576-0.8372 0-1.2129-2.3241-1.919-3.6398-1.1059-0.6194 0.38277-2.1421 6.889-3.3839 14.458-1.2418 7.5693-2.5669 14.263-2.9446 14.874-1.6445 2.6608-5.8535 56.305-4.6615 59.411 1.1989 3.1241 2.447-0.0577 2.5358-6.4647 0.051-3.7078 0.4127-7.7962 0.8029-9.0853l0.7094-2.3438 0.7342 2.6944c0.4038 1.4819 0.5001 6.6169 0.2141 11.411-0.4486 7.5197-0.2956 8.9198 1.1149 10.196 2.7526 2.4911 2.8939 1.9088 2.8824-11.88-0.012-14.463 2.0665-40.051 4.1694-51.328 0.7211-3.8672 1.815-10.617 2.4308-15 1.5968-11.365 3.2078-13.59 5.769-7.9688 0.5873 1.2891 1.8439 2.3438 2.7924 2.3438 2.415 0 2.3362 10.298-0.1992 26.031-2.391 14.837-3.4794 27.086-4.2255 47.553-0.5871 16.106-0.7555 17.353-2.3436 17.353-1.6702 0-0.4617-31.918 1.8636-49.219 2.8888-21.494 4.0745-35.273 3.1175-36.23-1.6878-1.6878-3.0508 0.0396-3.0508 3.8663 0 1.9904-0.6294 6.0788-1.3987 9.0853-1.6301 6.371-2.9204 20.502-4.2658 46.716-0.5292 10.312-1.3303 19.633-1.7801 20.711-1.0573 2.5358 6.5615 9.7574 10.294 9.7574 0.334 0 0.8827-6.6445 1.2193-14.766 0.3365-8.1211 1.4829-22.148 2.5474-31.172 1.0645-9.0234 2.3194-21.047 2.7887-26.719 1.0588-12.797 1.6803-16.406 2.8251-16.406 1.3986 0 1.0298 8.5776-1.028 23.906-2.0659 15.389-4.5702 48.05-4.6126 60.158l-0.027 7.6579 3.3306 2.0584c4.1039 2.5364 5.061 1.8638 2.3075-1.6217-2.7024-3.421-2.234-15.352 2.3668-60.284 3.1287-30.555 3.3379-31.563 6.3162-30.42 2.0104 0.77144 2.2807 2.6135 1.3686 9.3259-0.4204 3.0938-0.9319 7.3125-1.1366 9.375-0.2048 2.0625-0.8148 7.9688-1.3556 13.125-1.8429 17.57-2.9716 33.731-3.2837 47.015-0.1714 7.2958-0.5637 13.673-0.8719 14.172-1.0766 1.7421 9.4863 7.9548 21.1 12.41 2.7579 1.058 5.8581 2.315 6.8894 2.7933 4.2325 1.963 9.6195 4.0036 13.594 5.1492 13.375 3.8555 18.763 5.1156 19.94 4.6638 0.7269-0.27894 1.8456 0.12419 2.486 0.89582s3.1337 1.6683 5.5408 1.9926c2.4071 0.32428 6.2749 1.176 8.5952 1.8927s12.234 2.8183 22.031 4.6701c9.7968 1.8519 20.133 3.8086 22.969 4.3484 12.341 2.3489 59.65 3.8306 68.106 2.1331zm-26.18-13.55c-0.8242-13.111-0.7766-25.272 0.1212-30.938 1.917-12.096 2.833 13.618 1.2022 33.75l-0.6455 7.9688-0.6779-10.781zm18.82 7.9688c-0.3573-1.0312-0.5925-19.594-0.5228-41.25 0.1048-32.571 1.1307-46.032 1.5314-20.094 0.06 3.9014 0.5584 9.5211 1.1069 12.488 0.6935 3.7518 0.699 5.7541 0.018 6.5747-0.6006 0.72363-1.0769 9.4899-1.2317 22.668-0.1388 11.818-0.5446 20.644-0.9019 19.613zm-37.656-16.606c0.1866-9.4292 0.7113-18.831 1.166-20.894 0.5533-2.5093 0.7794 3.0499 0.6834 16.803-0.097 13.891-0.4748 20.664-1.166 20.894-0.7219 0.24064-0.923-4.7016-0.6834-16.803zm9.7713 17.075c-1.2807-2.7699-0.2535-38.551 1.0402-36.239 1.0421 1.862 1.0305 17.207-0.021 28.271-0.4412 4.6406-0.8997 8.2266-1.0189 7.9688zm18.38-1.56c-0.8109-0.81087-0.581-43.651 0.2834-52.812l0.6634-7.0312 0.2845 5.625c0.1565 3.0938 0.2678 9.2109 0.2474 13.594-0.117 25.173-0.344 41.25-0.5823 41.25-0.1493 0-0.5527-0.28125-0.8964-0.625zm38.433-7.8125c-0.3389-4.8984-0.835-21.352-1.1024-36.562-0.2675-15.211-0.6983-31.664-0.9573-36.562-0.5796-10.959 0.7907-9.6006 2.3638 2.3438 1.3043 9.9031 2.165 71.618 1.0656 76.406-0.6275 2.7323-0.8566 1.7913-1.3697-5.625zm16.118 7.0312c-0.5968-0.92522-1.5143-27.523-2.1879-63.422-0.1901-10.132-0.6366-20.363-0.9923-22.734-0.7046-4.6987 0.8159-6.1759 1.7853-1.7343 2.0586 9.4329 3.352 90.925 1.3949 87.891zm-111.48-7.97c-0.2284-4.3828-0.2004-10.078 0.062-12.656l0.4775-4.6875 0.5473 6.5625c0.301 3.6094 0.273 9.3047-0.062 12.656l-0.6096 6.0938-0.4152-7.9688zm-10.549 5.8594c-1.1148-1.9549-1.515-7.7956-0.684-9.9812 0.5182-1.363 1.1258-8.2706 1.3503-15.35 0.5727-18.065 0.4571-16.898 1.4981-15.117 0.498 0.85209 0.7139 8.5784 0.4977 17.812-0.21 8.9692-0.4077 17.89-0.4393 19.823-0.052 3.1779-1.1919 4.6203-2.2228 2.8125zm-9.0973-17.156c-0.01-8.9976 0.4211-22.266 0.9511-29.484 0.53-7.2188 1.2128-19.767 1.5173-27.885 0.3112-8.2983 0.9209-14.533 1.3926-14.242 1.2292 0.75969 0.9574 26.534-0.3954 37.502-0.6403 5.1908-0.9409 10.378-0.668 11.527 0.824 3.4689-0.7814 36.938-1.8216 37.978-0.6595 0.65954-0.9674-4.1965-0.976-15.396zm137.5 2.1741c-2.1712-49.576-2.4824-76.502-0.8654-74.885 1.6053 1.6054 3.3395 86.863 1.7981 88.404-0.1795 0.17952-0.5992-5.9043-0.9327-13.52zm14.857 12.866c-0.3635-0.58804-0.7978-11.69-0.9652-24.672-0.1675-12.981-0.7699-32.796-1.3387-44.033-0.5689-11.237-0.762-20.871-0.4291-21.41 2.6023-4.2106 3.926 13.159 4.3085 56.532 0.2771 31.418 0.052 36.216-1.5755 33.582zm-112.5-24.37c0.3812-12.117 0.9668-25.406 1.3013-29.531l0.6081-7.5 0.6997 8.2749c0.3849 4.5512 0.4725 8.6426 0.1947 9.0921-0.2778 0.44946-0.7414 9.593-1.0303 20.319-0.3098 11.501-0.9235 19.886-1.496 20.439-0.6688 0.64606-0.7551-5.9113-0.2775-21.094zm-69.932 18.168c-1.222-1.4724-0.1954-32.387 1.9886-59.886 0.5324-6.7031 1.2732-16.191 1.6462-21.084 0.5501-7.216 0.9731-8.9529 2.2388-9.1939 3.0949-0.58939 3.004 6.061-0.6704 49.028-0.8379 9.7969-1.5918 23.186-1.6755 29.754-0.1539 12.082-0.9133 14.532-3.5277 11.382zm21.241-20.343c0.4949-23.662 2.7686-60.518 3.7923-61.474 1.0035-0.93735-0.3386 38.532-1.4309 42.08-0.5546 1.8013-1.0504 10.872-1.1018 20.156-0.051 9.2847-0.4609 17.936-0.9101 19.225-0.4833 1.3872-0.626-6.7707-0.3495-19.987zm-31.39 17.17c-1.7411-4.2644 0.6986-52.709 2.7582-54.768 0.6006-0.60059 0.9192 1.2388 0.9192 5.3067 0 3.4242-0.3888 6.4662-0.8639 6.7598-0.4752 0.29366-0.9449 7.8068-1.0439 16.696-0.1525 13.704-1.1011 27.643-1.7696 26.006zm21.104-10.078c0.9041-20.402 1.5203-27.433 2.4545-28.01 0.9506-0.58747 0.2209 32.838-0.7957 36.448-1.2757 4.5304-2.0574 0.55454-1.6588-8.4375zm-31.802 6.6406c-0.8503-0.85034-0.6854-16.328 0.3081-28.906 0.448-5.6719 1.3148-18.328 1.9261-28.125 0.6113-9.7969 1.6669-19.922 2.3457-22.5l1.2342-4.6875 0.2374 5.1562c0.5085 11.044-0.3668 28.682-1.5686 31.612-0.8851 2.1575-1.2616 8.8195-1.3203 23.363-0.094 23.16-0.5574 26.693-3.1626 24.088zm-9.4989-4.2874c-1.3481-3.1664 2.1657-62.872 4.7731-81.103 0.2397-1.6758 0.8864-3.0469 1.4371-3.0469 1.3938 0-0.5237 32.511-2.9029 49.219-0.514 3.6094-0.9904 12.258-1.0587 19.219-0.1291 13.17-0.9347 18.799-2.2486 15.713zm-18.732-5.0644c-0.7935-3.1615 0.065-23.943 1.9126-46.273 3.0426-36.781 3.7054-42.188 5.1726-42.188 1.7627 0 0.9071 15.957-2.1868 40.781-0.6426 5.1562-1.2979 14.016-1.4562 19.688-0.714 25.583-1.8099 34.495-3.4422 27.992zm-6.5867-1.2309c-1.6006-2.5898 0.6703-38.939 4.3077-68.949 1.422-11.732 1.5319-12.872 1.6494-17.109 0.084-3.0144 0.4829-3.9844 1.6402-3.9844 1.2712 0 1.4256 0.67322 0.9139 3.9844-2.0697 13.392-5.3377 54.933-5.5367 70.379-0.1791 13.909-1.0927 18.724-2.9745 15.679zm-6.428-3.48c-1.6686-1.6686-0.1396-36.582 2.8054-64.062 0.8013-7.4766 1.6601-16.258 1.9084-19.514 0.4105-5.3818 1.9715-8.1754 3.6373-6.5096 0.5087 0.50866-0.5028 11.963-3.4155 38.68-1.0681 9.7969-2.1832 25.512-2.478 34.922-0.4992 15.937-0.8244 18.118-2.4576 16.484zm150.85-22.812c0.5747-17.093 0.8796-19.648 2.1722-18.204 1.1503 1.2856-0.2834 30.541-1.6047 32.744-0.8825 1.4714-1.0025-1.6033-0.5675-14.54zm-38.518 9.179c-0.337-1.343-0.143-3.3198 0.4312-4.3928 0.6783-1.2674 0.862-5.3211 0.5244-11.572-0.2858-5.2915-0.1332-11.519 0.3392-13.84 0.654-3.2122 0.8799-0.19274 0.9472 12.656 0.084 16.082-0.8041 22.877-2.242 17.148zm47.61-16.915c0.1383-11.145 0.5613-17.493 1.1556-17.344 0.5157 0.12977 0.7346 0.65781 0.4866 1.1734-0.2481 0.51562-0.35 7.6132-0.2266 15.772 0.1294 8.5556-0.1689 15.5-0.7046 16.406-0.6316 1.0681-0.8592-4.058-0.711-16.008zm-56.467 1.6422c-0.03-17.737 0.9156-32.344 2.0934-32.344 1.3518 0 0.4393 42.152-0.9639 44.531-0.8843 1.4994-1.1106-0.94224-1.1295-12.188zm-27.73-6.1c0.4619-15.542 1.46-26.147 2.5229-26.804 0.9575-0.59176 0.9405 3.203-0.095 21.179-1.0686 18.556-2.9414 22.894-2.4282 5.625zm66.136 4.8315c0-12.186 1.2825-23.739 1.9933-17.957 0.8223 6.6901 0.9502 18.634 0.2283 21.328-1.0505 3.9199-2.2216 2.1426-2.2216-3.3716zm-87.113-12.711c-0.8601-1.0363-0.892-3.0752-0.1336-8.528 0.5482-3.9413 0.9967-9.4558 0.9967-12.254 0-3.0003 0.4131-5.0884 1.0066-5.0884 1.0061 0 0.7417 25.752-0.2748 26.768-0.2555 0.25555-0.9732-0.14824-1.5949-0.89731zm-89.917-17.9c-0.013-2.5781 0.3139-6.5859 0.7267-8.9062 0.7099-3.9894 0.752-3.862 0.7746 2.3438 0.013 3.6094-0.3139 7.6172-0.7267 8.9062-0.5916 1.8471-0.7557 1.3505-0.7746-2.3438zm2.0778-21.797c0.2707-0.90234 1.3912-7.3359 2.49-14.297 1.904-12.061 2.8868-15.195 4.3168-13.765 1.3086 1.3087-4.8539 29.703-6.4466 29.703-0.4687 0-0.6308-0.73828-0.3602-1.6406zm296.88 121.61c0.9943-0.53214 5.9236-1.8191 10.954-2.8599 15.393-3.1849 30.601-8.3108 37.96-12.794 1.9256-1.1733 6.3305-3.1982 9.7887-4.4999 3.4581-1.3016 7.578-3.349 9.1551-4.5496 1.5772-1.2007 4.5551-3.0642 6.6176-4.1412 4.5094-2.3547 14.956-12.002 13.782-12.727-0.4575-0.28277-3.1805 1.5792-6.0512 4.1377-2.8706 2.5585-5.5128 4.6519-5.8716 4.6519s-2.2503 1.2656-4.2034 2.8125-3.8782 2.8125-4.278 2.8125c-0.3999 0-4.5579 1.846-9.2401 4.1022-14.389 6.9338-19.389 9.1565-24.731 10.994-2.8272 0.97268-5.6081 2.1181-6.1798 2.5453-0.5718 0.42722-3.9927 1.3264-7.6021 1.9981-3.6093 0.67172-9.6749 2.2228-13.479 3.4469s-7.6258 2.2256-8.4927 2.2256-2.395 0.6194-3.3959 1.3764c-2.2825 1.7263 2.1762 2.1229 5.2675 0.46852zm-4.1-12.15c0.9188 0 1.2265-0.53013 0.8607-1.4832-0.313-0.81577-0.7841-11.468-1.0468-23.672-0.5271-24.488-2.1074-54.272-3.2661-61.555-0.7324-4.6046 0.2039-8.5373 1.7981-7.552 2.0149 1.2453 5.5691 56.054 5.6758 87.528 0.02 5.9028 0.028 5.9207 2.5982 5.625 1.9953-0.22957 2.5026-0.72055 2.2439-2.1716-0.1839-1.0312-0.8999-13.477-1.5911-27.656-0.6913-14.18-1.7072-30-2.2576-35.156-2.1705-20.334-1.971-35.23 0.373-27.845 1.4783 4.6577 5.1172 49.616 5.8425 72.182 0.5363 16.687 0.7945 18.988 2.1019 18.727 2.6578-0.53014 1.0742-52.917-2.3351-77.246-1.7487-12.479-1.731-16.286 0.076-16.286 0.7734 0 1.4173 0.10547 1.4308 0.23437 0.014 0.12891 0.8593 6.1406 1.8795 13.359 1.2467 8.8213 2.2166 23.821 2.9578 45.746 1.0849 32.087 1.1345 32.617 3.0317 32.344 2.1481-0.30885 2.0699 2.1753 0.9533-30.277-0.4858-14.118-3.6609-54.958-4.5924-59.07-0.476-2.1016 0.9105-4.9835 1.9147-3.9793 1.8824 1.8824 7.1974 58.338 7.3302 77.861 0.081 11.888 0.2957 13.807 1.5007 13.406 13.886-4.6129 22.188-7.7297 27.041-10.151l5.9472-2.9676-0.6166-8.9558c-0.3391-4.9257-0.7755-12.964-0.9696-17.862-0.1941-4.8984-1.2583-18.398-2.3648-30-3.1737-33.276-3.197-33.75-1.6557-33.75 2.8278 0 8.6343 57.058 8.1525 80.112-0.2017 9.6484 0.1417 10.021 5.5646 6.0326 3.3665-2.4758 3.9196-3.3301 3.4973-5.402-0.2758-1.3536-0.5486-6.0471-0.6061-10.43-0.2314-17.651-3.2709-59.577-5.2502-72.422-0.65-4.2177-1.9647-4.4349-9.0346-1.4924-7.6406 3.18-7.4845 2.8107-5.9126 13.988 6.5961 46.902 6.2965 78.086-0.7844 81.669-6.2558 3.1654-6.1226 3.3493-6.1857-8.5404-0.029-5.457-0.4181-14.141-0.8646-19.297-0.4465-5.1562-1.285-14.859-1.8632-21.562-0.5782-6.7031-1.6657-15.504-2.4167-19.557-0.7509-4.0531-1.3653-9.903-1.3653-13 0-5.3695-0.098-5.6064-2.1094-5.1069-1.1602 0.28811-5.9063 1.4348-10.547 2.5483-4.6406 1.1134-12.251 3.0363-16.913 4.273-4.6615 1.2367-9.5379 2.2485-10.836 2.2485-4.4271 0-5.4825 1.7306-4.5735 7.5 1.4206 9.0171 3.6286 56.094 3.4411 73.369-0.1469 13.535 0.053 16.561 1.0679 16.172 0.6867-0.26317 1.892-0.4785 2.6784-0.4785zm30.836-11.425c-0.209-0.67721-0.8725-9.4578-1.4745-19.513-0.9419-15.731-1.8828-25.923-5.4964-59.531-1.5225-14.161 1.6775-12.894 3.7489 1.4842 3.8675 26.844 5.3964 45.646 5.4594 67.132 0.027 9.2604-1.0495 14.278-2.2374 10.427zm6.5654-3.7314c-0.2152-0.68742-0.6545-8.8436-0.9763-18.125-0.6155-17.754-1.3799-27.156-3.7726-46.406-2.5533-20.542-2.6654-22.201-1.5459-22.893 3.4364-2.1239 8.7931 47.431 9.0019 83.277 0.025 4.3686-1.7746 7.1258-2.7071 4.1467zm28.084-26.797c-1.2586-27.291-1.8081-34.041-4.6986-57.718-1.4852-12.165-1.3845-13.766 0.8657-13.766 2.2987 0 2.7721 2.9074 4.7317 29.062 2.3405 31.238 2.9108 58.125 1.2329 58.125-1.1668 0-1.5313-2.6854-2.1317-15.703zm8.5285 22.134c3.1828-1.9107 5.7606-4.5561 4.439-4.5552-0.4499 0.0003-3.5601 1.707-6.9117 3.7928-4.525 2.816-5.3697 3.6295-3.2813 3.1603 1.5469-0.34756 4.1362-1.4266 5.754-2.3978zm19.766-1.7331c6.046-5.501 5.1099-8.5921-0.9833-3.2474-2.9116 2.5539-5.2992 4.9599-5.3057 5.3466-0.027 1.6242 3.4854 0.45166 6.289-2.0992zm-41.352-22.839c-0.5329-18.975-3.3137-50.155-5.2758-59.152-0.4437-2.0347-0.5972-4.0386-0.341-4.4531 0.5321-0.86088-2.793-1.043-3.6368-0.19921-0.3049 0.30491 0.042 2.5198 0.7711 4.9219 0.729 2.4021 1.3389 6.2659 1.3552 8.5862 0.016 2.3203 0.6398 6.9609 1.3856 10.312 0.8045 3.6158 1.7877 16.959 2.4178 32.812 1.1342 28.537 1.2335 29.531 2.8521 28.53 0.7567-0.46761 0.8895-6.4824 0.4718-21.36zm24.738-5.4002c0-10.244-0.6137-24.43-1.3637-31.526-0.7501-7.0956-1.8141-17.331-2.3645-22.745-1.1544-11.355-1.7443-14.062-3.0644-14.062-0.5891 0-0.7274 1.6889-0.3649 4.4531 2.0305 15.482 4.3955 51.794 4.3199 66.328-0.048 9.2812-0.062 17.243-0.031 17.693 0.031 0.44986 0.6893 0.29274 1.4627-0.34916 1.1636-0.96574 1.4062-4.3802 1.4062-19.792zm25.728 17.708c1.983-2.8312 2.1118-17.604 0.1534-17.604-1.57 0-2.444 2.017-2.444 5.6406 0 1.4711-0.4206 3.781-0.9347 5.1332-0.6883 1.8104-0.6507 2.2828 0.1428 1.7925 0.7807-0.48247 0.906 0.40664 0.4548 3.2277-0.6932 4.3351 0.3539 5.0563 2.6277 1.81zm-19.435-3.7758c1.7334-2.2635-2.0116-61.471-4.3491-68.758-0.481-1.4993-1.1481-5.5693-1.4826-9.0443s-1.038-6.5839-1.5634-6.9086c-1.0711-0.66201-0.8783 2.1181 1.9826 28.591 1.1261 10.42 1.9092 24.512 1.9797 35.625 0.1373 21.662 0.5683 24.235 3.4328 20.495zm6.8861-7.3663c1.5861-2.9638-0.3772-4.3744-2.2892-1.6448-1.8763 2.6789-1.9131 3.6204-0.1414 3.6204 0.7553 0 1.849-0.88904 2.4306-1.9756zm0.034-9.5087c0.2547-8.8153-0.3701-22.25-1.5586-33.516-1.5378-14.575-3.132-27.87-3.4599-28.854-0.1242-0.37267 0.196-0.87015 0.7117-1.1055 0.5156-0.23538 1.4258 2.0849 2.0226 5.1562s1.5314 7.9045 2.0768 10.74c0.5455 2.8359 1.4495 12.328 2.0091 21.094 1.7263 27.041 2.0133 29.531 3.404 29.531 2.2252 0 0.3387-40.73-2.1711-46.875-0.3159-0.77344-0.8732-4.7812-1.2385-8.9062-1.0381-11.722-3.1576-24.844-4.0129-24.844-0.4272 0-2.2448 1.4258-4.0391 3.1684l-3.2624 3.1684 1.36 10.191c3.3453 25.067 5.2577 45.186 5.2577 55.312 0 4.1442 0.2812 7.8162 0.625 8.1599 1.3628 1.3628 2.1916 0.48059 2.2755-2.4219zm12.2-7.9688c0.7246-1.8832 0.6238-5.358-0.3737-12.891-0.7512-5.6719-1.413-11.578-1.4708-13.125-0.481-12.873-4.7645-44.105-6.3418-46.238-2.6885-3.6374-3.209 0.16268-1.3961 10.193 0.9738 5.3877 2.291 14.226 2.9273 19.64 0.6362 5.4141 1.5758 10.367 2.0881 11.007 0.5123 0.6398 0.7149 2.5382 0.4503 4.2188-0.6539 4.1529 1.3602 29.774 2.3405 29.774 0.4313 0 1.2306-1.1602 1.7762-2.5781zm-157.62-31.61c7.4766-0.80883 17.18-1.8534 21.562-2.3212 4.3828-0.46783 8.1586-0.88058 8.3906-0.91722 0.2321-0.0367-0.031-0.51941-0.5843-1.0728-0.7165-0.71655-4.0761-0.59868-11.672 0.40951-5.8662 0.77862-16.361 1.6355-23.322 1.9042l-12.656 0.48858 9.8438-1.2846c5.4141-0.70651 14.906-1.7897 21.094-2.4072 18.983-1.8943 21.963-2.3486 23.143-3.5283 1.3896-1.3896-6.8694-1.4574-15.643-0.12832-15.023 2.2758-38.94 3.409-58.984 2.7947-4.6374-0.14212 0-1.0111 7.951-1.4889 4.8652-0.29248 11.935-0.93326 15.711-1.424 3.7756-0.49071 10.736-0.90599 15.469-0.92286 4.7322-0.0169 11.557-0.42982 15.166-0.91766 3.6094-0.48784 10.57-1.3517 15.469-1.9197 4.8984-0.56798 11.016-1.6029 13.594-2.2998 2.5782-0.69693 8.047-2.1689 12.153-3.2711 8.2251-2.2079 11.6-3.6713 8.5808-3.72-0.9714-0.0157-3.2917 0.36785-5.1562 0.85228-33.842 8.7927-107.48 12.082-145.42 6.4966-26.933-3.9647-51.62-9.3143-69.375-15.033-3.3516-1.0796-8.9788-2.7636-12.505-3.7424-3.5261-0.97878-8.5259-2.8512-11.11-4.1609-2.7173-1.3769-5.3513-2.1174-6.245-1.7555-3.6301 1.4698 21.317 11.084 46.267 17.831 15.87 4.2914 23.11 6.8971 19.219 6.9174-9.1837 0.0479-46.618-11.356-63.784-19.43-10.418-4.9006-11.798-5.2843-12.492-3.4743-0.6129 1.5972-2.76 0.63014-15.599-7.0254-10.37-6.1834-11.25-6.6382-11.25-5.8168 0 3.4891 27.568 19.808 29.759 17.616 0.3603-0.36029 0.034-1.0476-0.724-1.5272-0.7586-0.47969-0.9035-0.87863-0.3221-0.88653 1.7727-0.0241 3.4617 2.5324 2.029 3.0711-0.6972 0.26208 0.1814 1.103 2.0702 1.9817 1.8047 0.83952 5.6001 3.1795 8.4342 5.1999s6.5426 3.9342 8.2411 4.2529c1.6985 0.31864 5.075 1.4468 7.5033 2.5071 11.11 4.8509 23.647 8.4031 40.509 11.478 4.3828 0.79918 12.648 2.4957 18.368 3.77 5.7195 1.2743 15.844 2.7646 22.5 3.3117 6.6555 0.54713 13.999 1.1515 16.32 1.343 9.5958 0.79211 54.848-0.38073 67.5-1.7494zm-63.75-1.43c-2.9012-0.35553 5.4259-0.69871 19.04-0.78469 15.93-0.10061 23.998 0.16746 23.616 0.78469-0.6458 1.045-34.129 1.045-42.656 0zm-26.408-1.7881c-3.4388-0.30559-6.6028-0.93107-7.0313-1.39-0.4534-0.48567 1.7272-0.58361 5.2179-0.23437 3.2983 0.32998 7.6226 0.59996 9.6094 0.59996 1.9869 0 3.6125 0.42187 3.6125 0.9375 0 0.98328-1.2171 0.99254-11.408 0.0869zm23.596-3.5291c-17.431-1.2485-45.829-5.4338-47.329-6.9756-0.6584-0.67645 0.06-0.80675 2.3293-0.42258 4.2735 0.72339 15.708 2.0259 33.75 3.8443 7.9922 0.80554 18.328 2.0231 22.969 2.7056l8.4375 1.241-7.9687-0.0453c-4.3828-0.0248-9.8672-0.18123-12.188-0.34743zm-51.464-1.3248c-1.235-0.49401-2.0018-1.142-1.7038-1.4399 0.7694-0.76944 8.0516 0.57266 8.6872 1.601 0.6856 1.1094-4.0823 0.99935-6.9834-0.16114zm-18.38-4.3236c-3.7804-0.87829-26.151-7.8415-26.584-8.2748-1.4309-1.4309 5.1377 0.0718 16.013 3.6634 6.8455 2.2607 13.29 4.3212 14.321 4.5788 1.875 0.46836 1.875 0.46836 0 0.46836-1.0312 0-2.7187-0.19603-3.75-0.43562zm-40.021-12.86c-1.8986-0.67801-4.8517-2.1348-6.5625-3.2374l-3.1105-2.0046 3.2813 0.59993c2.992 0.54706 4.8366 1.372 10.669 4.7715 2.6568 1.5485 0.2139 1.4746-4.2776-0.12937zm223.3 13.98c0.97-1.17 0.85-1.41-0.71-1.41-1.0313 0-2.4002 0.63281-3.0421 1.4062-0.9712 1.1703-0.8524 1.4062 0.7079 1.4062 1.0313 0 2.4002-0.63281 3.0421-1.4062zm16.461-3.7202c1.5262-1.1544 1.574-1.3812 0.2964-1.4062-2.8739-0.0563-7.3828 1.1422-7.3828 1.9624 0 1.3359 5.1157 0.93445 7.0864-0.55613zm-73.649-1.9082c15.211-0.75231 30.398-1.7838 33.75-2.2922 12.554-1.9044 28.479-4.7775 28.919-5.2174 1.2414-1.2414-1.3063-1.2284-10.693 0.0548-5.6416 0.77115-12.156 1.6119-14.476 1.8683-2.3203 0.25644-7.8047 0.87386-12.188 1.3721-19.218 2.1846-43.699 2.854-67.5 1.846-38.021-1.6103-44.842-2.6337-87.188-13.082-13.474-3.3246-15.102-3.8032-19.023-5.5922-2.17-0.99014-6.8987-2.6893-10.508-3.7758-6.0533-1.8223-24.665-9.4895-30.703-12.649-3.1235-1.6341-3.3328-0.97592-0.4687 1.4742 5.4002 4.6198 34.374 17.228 48.984 21.315 17.585 4.9198 25.088 6.8765 29.086 7.5854 12.381 2.195 20.257 3.7809 20.972 4.2228 0.4335 0.26787 6.6444 0.97525 13.802 1.572 7.1577 0.59672 16.6 1.3831 20.983 1.7474 13.214 1.0986 27.2 0.98664 56.25-0.45012zm83.024-0.90429c1.7902-1.354 1.7884-1.3769-0.1103-1.4062-1.0617-0.0164-2.7492 0.58959-3.75 1.3466-1.7902 1.354-1.7884 1.3769 0.1103 1.4062 1.0616 0.0164 2.7491-0.58959 3.75-1.3466zm-68.024-5.7272c27.843-2.9992 51.037-6.7067 61.856-9.8878 3.3618-0.98838 7.7997-2.2551 9.8622-2.8149 7.0067-1.9018 7.6634-2.6206 1.875-2.0526-3.0937 0.30357-6.0468 0.87859-6.5625 1.2778-0.5156 0.39921-2.625 1.0136-4.6875 1.3654-2.0625 0.35176-9.0234 1.6843-15.469 2.9613-6.4453 1.277-15.305 2.694-19.688 3.149-4.3828 0.45503-14.086 1.4584-21.562 2.2297-17.998 1.8567-39.155 2.6389-42.656 1.5772-2.2213-0.67354-1.0389-0.88481 5.625-1.0051 4.6407-0.0838 9.0704-0.27064 9.8438-0.41527 0.7734-0.14462 4.7812-0.54569 8.9062-0.89123 13.189-1.1048 34.507-3.445 40.312-4.4252 3.0938-0.52235 6.9525-1.0905 8.5749-1.2626 1.6225-0.17207 3.7319-0.79748 4.6875-1.3898 2.5685-1.5919-20.168 0.73535-38.575 3.9484-31.8 5.5509-111.51-0.74286-146.5-11.567-3.2335-1.0003-6.6832-1.8187-7.666-1.8187s-6.8188-1.6405-12.969-3.6455c-15.958-5.2025-17.521-5.4932-16.192-3.0096 2.1586 4.0333-6.9-0.93558-9.6064-5.2694-1.0472-1.6769-4.3501-1.5008-5.0289 0.2681-0.7618 1.9852 4.6016 6.4068 9.9974 8.2417 2.3203 0.78906 7.5937 2.7644 11.719 4.3896 4.125 1.6252 12.562 4.3457 18.75 6.0455 6.1875 1.6998 14.948 4.1906 19.467 5.5351 4.5195 1.3445 8.9193 2.4445 9.7772 2.4445 0.858 0 2.8555 0.39888 4.439 0.8864 2.5396 0.78188 12.156 2.403 28.66 4.8315 2.8359 0.41728 12.117 1.0395 20.625 1.3828 8.5078 0.34323 15.554 0.69354 15.657 0.77848 0.9284 0.76008 45.968-0.72001 56.53-1.8577zm-74.531-2.4985c-12.418-0.86905-29.639-3.2364-43.125-5.9284-4.125-0.82338-9.6093-1.841-12.188-2.2614-2.5781-0.42038-8.567-1.8626-13.309-3.205-4.7416-1.3424-9.1712-2.4517-9.8437-2.4652s-2.9102-0.8545-4.9727-1.8688l-3.75-1.8442 3.2813 0.35844c1.8047 0.19715 8.9766 1.8224 15.938 3.6116 29.42 7.562 47.204 10.238 76.406 11.499 5.1563 0.22262 12.75 0.71347 16.875 1.0908l7.5 0.68601-5.1562 0.65307c-6.4679 0.81921-12.269 0.75081-27.656-0.32609zm-96.861-19.88c-6.3348-2.3529-7.9595-3.3287-5.5422-3.3287 0.8289 0 1.7335 0.36627 2.0102 0.81393 0.2766 0.44766 2.5476 1.0852 5.0466 1.4166 4.8727 0.6464 9.9998 3.3535 6.2797 3.3158-1.0312-0.0105-4.5386-1.0084-7.7943-2.2176zm242.52 22.406c1.225-0.15538 2.6805-0.73571 3.2344-1.2896 1.4081-1.4081-3.4967-1.3305-7.5045 0.11872-3.7484 1.3554-4.1882 3.1138-0.5353 2.1404 1.418-0.37785 3.5804-0.81414 4.8054-0.96953zm32.559-5.5568c1.2345-0.80888 2.2446-1.8534 2.2446-2.3212 0-1.2341-5.2376 0.44337-8.7487 2.802l-2.9701 1.9951 3.6148-0.50262c1.9882-0.27643 4.6249-1.1644 5.8594-1.9733zm-128.54-4.6914c19.169-0.57151 58.1-4.3235 59.427-5.7274 0.3152-0.33346-15.036-0.35268-34.114-0.0428-19.078 0.30997-51.562 0.61663-72.188 0.68149-34.277 0.10779-36.911 0.22546-30.65 1.3692 12.461 2.276 45.371 4.9268 55.493 4.4698 3.3516-0.15131 13.266-0.48895 22.031-0.75028zm80.625-4.2361c2.5356-1.0896-2.6915-1.0896-6.0937 0-2.1307 0.68236-2.0454 0.7531 0.9375 0.77815 1.8047 0.0152 4.125-0.335 5.1562-0.77815zm67.559-1.5988c1.0742-1.0741 1.2398-1.7184 0.5048-1.9634-1.7562-0.5854-3.8446 0.56974-3.8446 2.1265 0 1.8873 1.3556 1.8211 3.3398-0.16311zm-326.77-2.62c0-0.77344-0.7631-1.4062-1.6958-1.4062s-2.5147-0.6194-3.5156-1.3764c-2.1612-1.6346-3.2261-1.7915-3.2261-0.47536 0 0.52839 1.0137 1.3461 2.2527 1.8172 1.239 0.47105 2.5295 1.3044 2.8678 1.8518 0.9233 1.4939 3.317 1.1974 3.317-0.41093zm202.5-0.29469c48.104 1.0428 56.296 0.35326 78.281-6.5897 1.8574-0.58652-4.1922-0.7168-17.812-0.38358-20.481 0.50106-45.202-0.34181-44.044-1.5017 0.3322-0.33294 16.706-0.83041 36.387-1.1055l35.782-0.50013 7.0313-2.6366c3.8672-1.4501 7.432-3.018 7.9219-3.4843 0.531-0.50542-53.633-0.84766-134.15-0.84766-74.273 0-139.64-0.23348-145.27-0.51886-11.989-0.60843-11.563 0.0637 3.2983 5.2072l8.8347 3.0577 30.072 0.11134c16.539 0.0612 51.091-0.0335 76.781-0.21038 25.69-0.17695 46.96-0.0715 47.266 0.23437 1.7082 1.7083-7.0523 2.0031-72.237 2.4311l-71.388 0.46875 7.0122 1.7135c3.8568 0.94243 8.0669 2.1703 9.356 2.7286 4.1536 1.7989 27.502 2.402 75.938 1.9615 26.039-0.23677 53.461-0.29788 60.938-0.13579zm-212.88-5.42c-1.9068-2.2976-9.373-7.201-10.004-6.57-0.8371 0.83716 3.2774 4.8936 6.652 6.5582 3.7938 1.8713 4.8984 1.8752 3.3519 0.0119zm351.46-3.4689c1.3562-1.6341 2.4332-9.4603 1.1967-8.6961-0.4866 0.30078-1.1522 1.7639-1.4789 3.2514s-1.4138 3.4465-2.4158 4.3533c-2.4135 2.1842-2.4892 4.5937-0.1042 3.3173 0.9448-0.50561 2.2058-1.5073 2.8022-2.226zm-369.67-3.93c-4.022-3.46-5.156-3.94-5.156-2.19 0 2.055 4.0548 5.4512 6.4915 5.4371 2.3396-0.0135 2.2981-0.11448-1.3353-3.246zm14.662-0.52119c-1.2173-1.0141-2.6938-1.8298-3.2812-1.8126s-0.072 0.86091 1.1452 1.875c1.2173 1.0141 2.6938 1.8298 3.2812 1.8126s0.072-0.86091-1.1452-1.875zm-12.193-3.4844c-0.4834-0.90235-1.9981-2.8476-3.3659-4.3228-1.901-2.0502-2.3545-3.2851-1.9249-5.2412 0.9838-4.4793-2.0027-5.7542-3.74-1.5964-1.8166 4.3478-1.8404 4.2025 1.1593 7.0686 5.2307 4.9976 9.5632 7.2497 7.8715 4.0919zm7.3754-0.0839c0-0.43287-1.0547-1.2676-2.3438-1.8549-2.4812-1.1305-3.0982-0.36259-1.2187 1.5169 1.2908 1.2908 3.5625 1.5063 3.5625 0.33799zm-8.9553-7.7047c-0.9063-1.0014-2.0191-1.8208-2.473-1.8208-0.9901 0 0.9637 3.9364 2.428 4.8918 1.7526 1.1436 1.7861-1.1471 0.045-3.0711zm341.9 2.0484c19.635-4.6768 22.466-30.106 5.0942-45.769-5.4384-4.9035-31.137-18.485-33.948-17.941-0.8805 0.1702 4.4836 3.3486 11.92 7.063 25.863 12.918 35.674 28.735 28.243 45.534l-1.9602 4.4312-83.725 0.05412c-147.82 0.092-197.58-0.047-221.06-0.623-20.774-0.51-22.783-0.427-21.028 0.873 1.0673 0.79042 3.2488 2.6592 4.8477 4.1528l2.9071 2.7157 152.65 0.15924c83.959 0.08756 154.19-0.20657 156.07-0.65366zm28.594-4.2177c1.56-3.2714-0.3734-9.7677-3.1778-10.677-1.9813-0.64268-2.4561 2.5907-0.8692 5.9184 1.3535 2.8385 1.3636 3.5019 0.099 6.5284-1.9077 4.5657 1.6975 2.9499 3.948-1.7694zm-359.66-1.152c0-0.3076-1.582-2.3696-3.5156-4.5822s-4.9148-6.8049-6.6248-10.205c-4.5995-9.1458-6.426-9.2323-5.3039-0.25117 0.739 5.9147 15.444 20.234 15.444 15.038zm232.97-3.7933c41.766-0.28116 83.124-0.42573 91.908-0.32128 14.974 0.17807 15.978 0.08119 16.081-1.5525 0.061-0.95834 0.4139-2.7026 0.7854-3.8762l0.6755-2.1338-55.663 0.59924c-35.298 0.38-56.515 0.26586-57.992-0.31197-2.8439-1.1126 48.389-2.4257 87.891-2.2528l26.499 0.11602-0.6048-2.5665c-0.3326-1.4116-0.8666-2.8389-1.1868-3.1719-0.3201-0.33301-76.414-0.90644-169.1-1.2743l-168.5-0.669v2.7789c0 3.8991 0.056 3.9018 92.812 4.4874 43.57 0.27508 83.227 0.78044 88.125 1.123 19.906 1.3922-3.4367 1.803-90.22 1.5877-82.647-0.20507-88.756-0.11186-87.978 1.3423 2.5318 4.7307 1.3806 4.6002 46.948 5.3225 23.461 0.37191 49.195 0.988 57.188 1.3691 7.9922 0.38108 21.703 0.51785 30.469 0.30393 8.7657-0.21392 50.109-0.61898 91.875-0.90014zm-230.15-1.809c0-0.2949-1.0972-2.4085-2.4383-4.6969-2.8491-4.8616-5.3906-12.695-4.3662-13.457 0.3909-0.29084 0.849-2.0054 1.0179-3.81 1.4178-15.145 28.239-33.455 59.693-40.748 3.6094-0.83696 7.4063-1.8914 8.4375-2.3432 1.0313-0.45179 5.8829-1.5189 10.781-2.3714 14.31-2.4904 18.242-3.5556 16.08-4.3556-2.2375-0.82769-15.614 1.3943-20.379 3.3852-1.8866 0.78825-4.7497 1.448-6.3625 1.4661-1.6128 0.01811-5.6745 0.62379-9.0261 1.346-10.741 2.3144-8.0795-0.14836 2.9586-2.7376 29.368-6.8889 43.15-8.9304 60.84-9.0117 6.9341-0.031878 15.772-0.37979 19.639-0.77314 3.8672-0.39335 8.5078-0.33263 10.312 0.13493 1.8047 0.46756 6.8672 0.9889 11.25 1.1585 4.3828 0.16963 8.6016 0.33521 9.375 0.36796s6.4687-0.15469 12.656-0.41654c14.837-0.62787 34.362 0.91847 56.25 4.4549 24.98 4.0359 24.495 3.9426 32.812 6.313 56 15.964 78.27 31.998 78.27 56.365 0 3.3108 2.3187 3.793 3.1591 0.65698 2.6104-9.7407-6.8243-27.496-18.543-34.897-17.363-10.965-33.713-18.657-47.897-22.533-2.5781-0.70448-7.0078-1.974-9.8437-2.8212-2.8359-0.84717-7.2656-1.9656-9.8438-2.4854-2.5781-0.51979-5.1093-1.2815-5.625-1.6927-0.5156-0.41119-6-1.4176-12.188-2.2364-22.69-3.0027-27.28-3.6373-31.88-4.401-21.32-3.5444-120.22-2.3475-135.93 1.6449-3.1 0.7862-7.11 1.7757-8.91 2.1991-10.57 2.479-40.334 12.987-46.406 16.384-7.6295 4.2687-7.9687 4.5558-7.9687 6.7452 0 2.1128-0.9994 2.9727-8.1111 6.9786-11.482 6.4674-20.658 26.404-16.611 36.089 2.8494 6.8196 8.7844 13.642 8.7844 10.098zm24.843-56.457c1.711-1.8221 10.256-5.6529 14.062-6.3046 3.5197-0.60251 3.6313-0.55404 1.8166 0.78916-3.1885 2.3601-17.624 7.3743-15.879 5.5154zm307.27 39.256c6.0725-0.08526 6.4013-0.6057 2.9635-4.6913l-2.43-2.884-28.74-0.066c-15.81-0.036-29.59-0.428-30.62-0.872-2.4957-1.0724-3.7737-1.0317 29.444-0.93844 30.787 0.08645 30.869 0.06211 19.045-5.6384l-6.3008-3.0375-83.906 0.16105c-82.292 0.15795-115.83-0.40043-111.88-1.8626 2.372-0.87745 183.71-0.47974 189.69 0.41603 4.1354 0.61947 4.0799 0.56498-2.8125-2.759-12.906-6.2239-3.7818-5.8053-141.09-6.4732l-125.63-0.611-5.155 2.53c-2.8359 1.3912-7.2656 3.2854-9.8438 4.2093-4.6341 1.6608-4.2049 1.6807 37.734 1.7484 27.611 0.04458 42.422 0.39582 42.422 1.006 0 0.9186-22.908 1.3954-67.969 1.4147l-19.688 0.0084-4.9218 3.1189c-2.7071 1.7154-4.9208 3.1881-4.9195 3.2728 0 0.08467 14.872 0.21885 33.047 0.29815 18.174 0.0793 42.438 0.59345 53.918 1.1425 13.137 0.62834 43.019 0.7801 80.625 0.40948 56.632-0.55814 70.101-0.22561 65.274 1.6116-2.5621 0.97525-50.002 1.1917-111.46 0.50848-144.8-1.609-125.79-2.264-127.38 4.387l-0.6163 2.5781 53.221 0.12408c29.272 0.06824 59.76 0.38465 67.752 0.70312 11.14 0.4439 181.15 0.5943 210.23 0.18598zm-58.828-33.932c-12.532-4.0251-17.842-4.411-71.719-5.213-93.42-1.3907-122.35-0.99159-129.68 1.7888-1.458 0.55313-5.2549 1.5235-8.4375 2.1563-5.4555 1.0848-4.7137 1.1645 12.963 1.3924 10.312 0.13298 32.672 0.52305 49.688 0.86684 17.016 0.34378 58.359 0.66788 91.875 0.7202l60.938 0.09515-5.625-1.8066zm18.281 0.05083c0-0.4852-0.8543-0.88217-1.8984-0.88217-1.0442 0-4.2991-0.84375-7.2332-1.875-2.934-1.0312-6.5094-1.875-7.9453-1.875-1.4358 0-2.6106-0.39194-2.6106-0.87098 0-1.2735-8.2249-3.4463-21.562-5.6963-6.4453-1.0873-16.57-2.9752-22.5-4.1953-21.777-4.4809-75.378-6.3405-104.53-3.6266-25.009 2.3282-39.317 4.2434-41.981 5.6197-1.4331 0.74036-3.0189 1.0907-3.524 0.77854-1.643-1.0154-4.864 0.51164-3.7954 1.7993 0.7507 0.90451 2.7166 0.81422 9.19-0.42207 35.597-6.7983 102.64-7.4061 146.52-1.3284 5.9297 0.82147 11.432 1.8389 12.228 2.2609 0.7957 0.42202 3.2189 0.79177 5.3849 0.82166 2.1661 0.0299 4.3382 0.30147 4.8269 0.6035s5.6592 1.7882 11.49 3.3027c5.8309 1.5144 14.188 3.7477 18.57 4.9628 7.9406 2.2015 9.375 2.2967 9.375 0.62271zm-279.79-0.383c1.0009-0.75704 1.327-1.3899 0.7246-1.4062-1.781-0.04849-4.061 1.0438-4.061 1.9455 0 1.2287 1.2706 1.0233 3.3364-0.53924zm222.6-7.5769c-4.8984-0.65931-12.281-1.2532-16.406-1.3198-4.125-0.06658-9.3984-0.52283-11.719-1.0139-6.8741-1.4548-55.305-2.0378-67.5-0.81256-5.9297 0.59576-15.211 1.3852-20.625 1.7542-8.2812 0.56452-6.1234 0.71531 13.594 0.94989 12.891 0.15337 32.086 0.56448 42.656 0.91357 36.587 1.2083 70.5 0.94186 60-0.47145zm-87.28-15.089c1.4419-0.28014 1.9215-0.75972 1.3406-1.3406-0.5808-0.58085-8.7624-0.23085-22.87 0.97837-12.081 1.0355-24.136 1.9531-26.789 2.039-3.4635 0.11218-4.5514 0.44711-3.8592 1.1881 0.8786 0.94061 45.083-1.4865 52.177-2.8649z"/>
</svg>
