<?xml version="1.0" encoding="utf-8"?>
<!-- Generator: Adobe Illustrator 25.0.1, SVG Export Plug-In . SVG Version: 6.00 Build 0)  -->
<svg version="1.1" id="Layer_1" xmlns="http://www.w3.org/2000/svg" xmlns:xlink="http://www.w3.org/1999/xlink" x="0px" y="0px"
	 viewBox="0 0 295.8 297.8" style="enable-background:new 0 0 295.8 297.8;" xml:space="preserve">
<path d="M72.1,287.7c0,5.6-4.5,10.1-10.1,10.1H19.3c-5.6,0-10.1-4.5-10.1-10.1V108.3c0-5.6,4.5-10.1,10.1-10.1h42.8
	c5.6,0,10.1,4.5,10.1,10.1L72.1,287.7L72.1,287.7z"/>
<circle cx="40.7" cy="40.7" r="40.7"/>
<path d="M295.8,288.6c0,5.1-4.1,9.2-9.2,9.2h-45.9c-5.1,0-9.2-4.1-9.2-9.2v-84.2c0-12.6,3.7-55-32.8-55c-28.3,0-34.1,29.1-35.2,42.1
	v97.1c0,5.1-4.1,9.2-9.2,9.2h-44.4c-5.1,0-9.2-4.1-9.2-9.2V107.5c0-5.1,4.1-9.2,9.2-9.2h44.4c5.1,0,9.2,4.1,9.2,9.2v15.7
	c10.5-15.8,26.1-27.9,59.3-27.9c73.6,0,73.1,68.7,73.1,106.5L295.8,288.6L295.8,288.6z"/>
</svg>
