<?xml version="1.0" encoding="utf-8"?>
<!-- Generator: Adobe Illustrator 25.0.1, SVG Export Plug-In . SVG Version: 6.00 Build 0)  -->
<svg version="1.1" id="ELEMENTS" xmlns="http://www.w3.org/2000/svg" xmlns:xlink="http://www.w3.org/1999/xlink" x="0px" y="0px"
	 viewBox="0 0 15.9 13.1" style="enable-background:new 0 0 15.9 13.1;" xml:space="preserve">
<path d="M15.9,1.6c-0.5,0.2-1.1,0.4-1.6,0.5c0.3,0,0.6-0.5,0.8-0.7c0.2-0.3,0.4-0.6,0.5-1V0.3h-0.1c-0.6,0.3-1.2,0.6-1.9,0.7
	c-0.1,0-0.1,0-0.1,0c-0.1-0.1-0.1-0.1-0.2-0.2c-0.3-0.2-0.6-0.4-0.9-0.6c-0.5-0.1-1-0.2-1.5-0.2C10.5,0,10,0.2,9.6,0.4
	C9.2,0.6,8.8,0.9,8.5,1.3S8,2.1,7.9,2.6C7.8,3,7.8,3.5,7.8,3.9c0,0.1,0,0.1,0,0.1C5.1,3.6,3,2.7,1.2,0.7C1.1,0.6,1.1,0.6,1,0.7
	c-0.8,1.2-0.4,3,0.6,3.9C1.7,4.7,1.8,4.9,2,5C1.9,5,1.3,4.9,0.7,4.6c-0.1,0-0.1,0-0.1,0.1s0,0.2,0,0.4c0.1,1.2,1,2.3,2.1,2.7
	c0.1,0,0.3,0.1,0.4,0.1c-0.2,0-0.5,0.1-1.2,0c-0.1,0-0.1,0-0.1,0.1c0.5,1.5,1.7,1.9,2.6,2.2c0.1,0,0.2,0,0.4,0l0,0
	C4.5,10.6,3.5,11,3,11.1c-0.9,0.3-1.8,0.4-2.7,0.3c-0.1,0-0.2,0-0.2,0v0.1c0.2,0.1,0.4,0.2,0.6,0.3c0.6,0.3,1.2,0.6,1.8,0.7
	c3.3,0.9,6.9,0.2,9.4-2.2c1.9-1.9,2.6-4.5,2.6-7.2c0-0.1,0.1-0.2,0.2-0.2c0.5-0.4,0.9-0.8,1.3-1.3C15.9,1.7,15.9,1.6,15.9,1.6
	L15.9,1.6C15.9,1.5,15.9,1.5,15.9,1.6z"/>
</svg>
